<svg width="37" height="38" viewBox="0 0 37 38" fill="none" xmlns="http://www.w3.org/2000/svg">
<path d="M25.6258 37.9999C24.5908 37.9999 23.5558 37.5799 22.77 36.7599L15.5442 29.2199C14.5667 28.1999 14.5667 26.5399 15.5442 25.5199L16.8667 24.1399C17.8442 23.1199 19.435 23.1199 20.4125 24.1399L22.3483 26.1599V19.2399C22.3483 17.7999 23.4792 16.6199 24.8592 16.6199H26.4308C27.8108 16.6199 28.9417 17.7999 28.9417 19.2399V26.1599L30.8775 24.1399C31.855 23.1199 33.4458 23.1199 34.4233 24.1399L35.7458 25.5199C36.225 26.0199 36.4742 26.6799 36.4742 27.3599C36.4742 28.0399 36.2058 28.7199 35.7458 29.1999L28.5392 36.7199C27.7533 37.5399 26.7183 37.9599 25.6833 37.9599L25.6258 37.9999ZM18.63 25.3999C18.4767 25.3999 18.3233 25.4599 18.2083 25.5799L16.8858 26.9399C16.6558 27.1799 16.6558 27.5599 16.8858 27.7999L24.1117 35.3399C24.9358 36.1999 26.2967 36.1999 27.1208 35.3399L34.3275 27.7999C34.4425 27.6799 34.5 27.5399 34.5 27.3799C34.5 27.2199 34.4425 27.0599 34.3275 26.9399L33.005 25.5599C32.775 25.3199 32.4108 25.3199 32.1808 25.5599L29.7467 28.0999C29.2867 28.5799 28.5775 28.7199 27.9833 28.4599C27.37 28.1999 26.9867 27.5799 26.9867 26.8999V19.2399C26.9867 18.8999 26.7183 18.6199 26.3925 18.6199H24.8208C24.495 18.6199 24.2267 18.8999 24.2267 19.2399V26.8999C24.2267 27.5799 23.8242 28.1999 23.23 28.4599C22.6167 28.7199 21.9267 28.5799 21.4667 28.0999L19.0325 25.5599C18.9175 25.4399 18.7642 25.3799 18.6108 25.3799L18.63 25.3999Z" fill="black" fill-opacity="0.72"/>
<path d="M11.615 21.3398H10.0433C8.66333 21.3398 7.5325 20.1598 7.5325 18.7198V11.7998L5.59667 13.8198C4.61917 14.8398 3.02833 14.8398 2.05083 13.8198L0.728333 12.4398C0.249166 11.9398 0 11.2798 0 10.5998C0 9.91977 0.268333 9.23977 0.728333 8.75977L7.935 1.23977C9.50667 -0.400234 12.075 -0.400234 13.6658 1.23977L20.8917 8.75977C21.8692 9.77977 21.8692 11.4398 20.8917 12.4598L19.5692 13.8398C18.5917 14.8598 17.0008 14.8598 16.0233 13.8398L14.0875 11.8198V18.7398C14.0875 20.1798 12.9567 21.3598 11.5767 21.3598L11.615 21.3398ZM7.83917 9.35977C8.05 9.35977 8.26083 9.39977 8.47167 9.47976C9.085 9.73977 9.46833 10.3598 9.46833 11.0398V18.6998C9.46833 19.0398 9.73667 19.3198 10.0625 19.3198H11.6342C11.96 19.3198 12.2283 19.0398 12.2283 18.6998V11.0398C12.2283 10.3598 12.6308 9.73977 13.225 9.47976C13.8383 9.21976 14.5283 9.35977 14.9883 9.83977L17.4225 12.3798C17.6525 12.6198 18.0167 12.6198 18.2467 12.3798L19.5692 11.0198C19.7992 10.7798 19.7992 10.3998 19.5692 10.1598L12.3433 2.63977C11.5192 1.77977 10.1583 1.77977 9.33417 2.63977L2.1275 10.1798C2.0125 10.2998 1.955 10.4398 1.955 10.5998C1.955 10.7598 2.0125 10.9198 2.1275 11.0398L3.45 12.4198C3.68 12.6598 4.04417 12.6598 4.27417 12.4198L6.70833 9.87977C7.015 9.55977 7.43667 9.37977 7.85833 9.37977L7.83917 9.35977Z" fill="black" fill-opacity="0.72"/>
</svg>
