<svg width="48" height="48" viewBox="0 0 48 48" fill="none" xmlns="http://www.w3.org/2000/svg">
<path d="M0 9C0 4.02944 4.02944 0 9 0H39C43.9706 0 48 4.02944 48 9V39C48 43.9706 43.9706 48 39 48H9C4.02944 48 0 43.9706 0 39V9Z" fill="#E22526"/>
<path d="M9 0C4.02944 0 0 4.02944 0 9V9.26143L44.8717 2.17896C43.2955 0.820999 41.2436 0 39 0H9Z" fill="#B51E1E"/>
<path d="M45.7979 3.10162L37.5666 47.9999L39 48C43.9706 48 48 43.9706 48 39V9C48 6.74364 47.1697 4.68122 45.7979 3.10162Z" fill="#B51E1E"/>
<path d="M13.5104 25.6065C13.5104 24.8085 13.6364 24.0595 13.8884 23.3595C14.1544 22.6455 14.5324 22.0295 15.0224 21.5115C15.5124 20.9795 16.1074 20.5595 16.8074 20.2515C17.5074 19.9435 18.3054 19.7895 19.2014 19.7895C19.7894 19.7895 20.3284 19.8455 20.8184 19.9575C21.3084 20.0555 21.7844 20.2025 22.2464 20.3985L21.5954 22.8975C21.3014 22.7855 20.9794 22.6875 20.6294 22.6035C20.2794 22.5195 19.8874 22.4775 19.4534 22.4775C18.5294 22.4775 17.8364 22.7645 17.3744 23.3385C16.9264 23.9125 16.7024 24.6685 16.7024 25.6065C16.7024 26.6005 16.9124 27.3705 17.3324 27.9165C17.7664 28.4625 18.5154 28.7355 19.5794 28.7355C19.9574 28.7355 20.3634 28.7005 20.7974 28.6305C21.2314 28.5605 21.6304 28.4485 21.9944 28.2945L22.4354 30.8565C22.0714 31.0105 21.6164 31.1435 21.0704 31.2555C20.5244 31.3675 19.9224 31.4235 19.2644 31.4235C18.2564 31.4235 17.3884 31.2765 16.6604 30.9825C15.9324 30.6745 15.3304 30.2615 14.8544 29.7435C14.3924 29.2255 14.0494 28.6165 13.8254 27.9165C13.6154 27.2025 13.5104 26.4325 13.5104 25.6065Z" fill="white"/>
<path d="M34.4894 16.5765V19.3695H30.1004V31.1295H26.8244V19.3695H22.4354V16.5765H34.4894Z" fill="white"/>
</svg>
