<svg width="48" height="48" viewBox="0 0 48 48" fill="none" xmlns="http://www.w3.org/2000/svg">
<path d="M0 9C0 4.02944 4.02944 0 9 0H39C43.9706 0 48 4.02944 48 9V39C48 43.9706 43.9706 48 39 48H9C4.02944 48 0 43.9706 0 39V9Z" fill="#FF444F"/>
<path d="M9 0C4.02944 0 0 4.02944 0 9V9.26143L44.8717 2.17896C43.2955 0.820999 41.2436 0 39 0H9Z" fill="#E12E3A"/>
<path d="M45.7979 3.10162L37.5666 47.9999L39 48C43.9706 48 48 43.9706 48 39V9C48 6.74364 47.1697 4.68122 45.7979 3.10162Z" fill="#E12E3A"/>
<path d="M14.3164 28.5989C14.4704 28.6129 14.6454 28.6269 14.8414 28.6409C15.0514 28.6409 15.2964 28.6409 15.5764 28.6409C17.2144 28.6409 18.4254 28.2279 19.2094 27.4019C20.0074 26.5759 20.4064 25.4349 20.4064 23.9789C20.4064 22.4529 20.0284 21.2979 19.2724 20.5139C18.5164 19.7299 17.3194 19.3379 15.6814 19.3379C15.4574 19.3379 15.2264 19.3449 14.9884 19.3589C14.7504 19.3589 14.5264 19.3729 14.3164 19.4009V28.5989ZM23.7874 23.9789C23.7874 25.2389 23.5914 26.3379 23.1994 27.2759C22.8074 28.2139 22.2474 28.9909 21.5194 29.6069C20.8054 30.2229 19.9304 30.6849 18.8944 30.9929C17.8584 31.3009 16.6964 31.4549 15.4084 31.4549C14.8204 31.4549 14.1344 31.4269 13.3504 31.3709C12.5664 31.3289 11.7964 31.2309 11.0404 31.0769V16.9019C11.7964 16.7619 12.5804 16.6709 13.3924 16.6289C14.2184 16.5729 14.9254 16.5449 15.5134 16.5449C16.7594 16.5449 17.8864 16.6849 18.8944 16.9649C19.9164 17.2449 20.7914 17.6859 21.5194 18.2879C22.2474 18.8899 22.8074 19.6599 23.1994 20.5979C23.5914 21.5359 23.7874 22.6629 23.7874 23.9789Z" fill="white"/>
<path d="M33.032 31.2659C32.626 30.4539 32.178 29.6349 31.688 28.8089C31.212 27.9689 30.659 27.1149 30.029 26.2469C29.833 26.4989 29.581 26.8489 29.273 27.2969C28.979 27.7449 28.678 28.2209 28.37 28.7249C28.076 29.2289 27.796 29.7119 27.53 30.1739C27.264 30.6359 27.068 30.9999 26.942 31.2659H23.204C23.82 30.1319 24.534 28.9419 25.346 27.6959C26.172 26.4499 27.089 25.1269 28.097 23.7269L23.414 16.7129H27.383L30.218 21.2489L32.99 16.7129H36.728L32.108 23.7689C33.284 25.2949 34.271 26.7089 35.069 28.0109C35.867 29.2989 36.497 30.3839 36.959 31.2659H33.032Z" fill="white"/>
</svg>
