<svg xmlns="http://www.w3.org/2000/svg" width="120" height="152" fill="none"><path fill="#fff" d="M43.02 76.2c0 .06.02.31-.1.6-.15.37-.43.6-.62.73-1.02.72-1.97.97-1.97.97a16.14 16.14 0 0 1-7.23.45s-1.5-.21-2.86-.75c-.1-.04-.6-.24-1.11-.67a1.86 1.86 0 0 1-.52-.6c-.16-.3-.18-.6-.18-.76l-.01-28.92a27.9 27.9 0 0 1 2.08-10.63 28.69 28.69 0 0 1 4.13-7.14 21.84 21.84 0 0 1 9.46-7.04 2388.24 2388.24 0 0 0 25.92-10.4 14.9 14.9 0 0 1 7.07-.8c2.16.3 3.68 1.03 4.11 1.24a13.23 13.23 0 0 1 5.62 5.31 18.06 18.06 0 0 1 2.4 6.61c.27 1.57.35 2.94.35 4l-.03 29.1c0 .09 0 .2-.03.34a2.57 2.57 0 0 1-.66.95c-.05.04-.23.2-.62.4-.36.2-.66.3-.8.35a13.39 13.39 0 0 1-3.92.78 17.7 17.7 0 0 1-6.17-.7 5.5 5.5 0 0 1-1.2-.52c-.54-.32-.75-.59-.86-.74-.2-.29-.27-.54-.29-.6a1.77 1.77 0 0 1-.05-.42l.02-28.5-.01-.76c-.02-.31-.04-.65-.12-1.08-.04-.26-.12-.6-.26-1l-25.4 10.24a6.84 6.84 0 0 0-2.53 1.68 9.67 9.67 0 0 0-1.53 2.1 14.35 14.35 0 0 0-2.05 7.36c-.04 16.38-.06 28.2-.03 28.82Z"/><path fill="#000" d="M35.77 79.44c-1.18 0-2.07-.13-2.7-.21-.06-.01-1.55-.22-2.93-.77a4.6 4.6 0 0 1-1.19-.71c-.37-.3-.51-.53-.6-.69a1.92 1.92 0 0 1-.2-.9l-.02-28.91a28.15 28.15 0 0 1 2.12-10.73 29.05 29.05 0 0 1 4.16-7.22c.66-.82 1.88-2.34 3.87-3.9A22.1 22.1 0 0 1 44 22.18a2858.6 2858.6 0 0 0 25.92-10.39 15.2 15.2 0 0 1 7.22-.81c1.98.27 3.48.9 4.2 1.26 1.23.61 2.42 1.47 3.44 2.47 1.2 1.18 1.88 2.29 2.28 2.95a18.6 18.6 0 0 1 2.44 6.7c.23 1.34.36 2.7.36 4.05l-.03 29.1c0 .14 0 .28-.04.4-.05.25-.17.41-.28.57-.07.1-.22.31-.46.53a5.53 5.53 0 0 1-1.52.8 14.79 14.79 0 0 1-4 .8 18.09 18.09 0 0 1-6.28-.7c-.38-.13-.8-.28-1.25-.55a3.04 3.04 0 0 1-.94-.82 1.97 1.97 0 0 1-.4-1.18l.03-28.51a11.85 11.85 0 0 0-.13-1.79c-.04-.22-.09-.45-.15-.67L49.27 36.5a6.69 6.69 0 0 0-2.42 1.61 14.74 14.74 0 0 0-2.68 4.54 14.13 14.13 0 0 0-.82 4.73c-.04 13.87-.07 28.14-.04 28.8l-.29.02h.29a1.72 1.72 0 0 1-.85 1.56c-1.04.74-2 1-2.05 1.02a16.53 16.53 0 0 1-4.63.66ZM75.2 11.4a14.76 14.76 0 0 0-5.09.9A2781.27 2781.27 0 0 1 44.2 22.7a21.56 21.56 0 0 0-5.56 3.15c-1.94 1.52-3.14 3-3.78 3.8a28.5 28.5 0 0 0-4.08 7.08 27.58 27.58 0 0 0-2.07 10.52l.01 28.92c0 .23.05.44.15.63.05.11.16.27.45.51.44.37.87.56 1.03.62 1.32.53 2.79.73 2.8.73.74.1 1.86.26 3.39.2 1.67-.08 2.81-.39 3.72-.63.01 0 .92-.25 1.88-.93.2-.14.41-.32.53-.6.05-.15.08-.31.07-.48-.02-.55 0-9.17.04-28.84a14.89 14.89 0 0 1 .86-4.91c.17-.48.56-1.46 1.23-2.6.45-.76.85-1.41 1.57-2.15a7.77 7.77 0 0 1 2.62-1.74l25.4-10.24a.28.28 0 0 1 .38.17 7.29 7.29 0 0 1 .39 2.15l.02.78v.02l-.03 28.48a1.44 1.44 0 0 0 .3.86c.05.09.23.34.77.66.38.23.73.37 1.13.5.58.19 1.14.33 1.79.44a17.94 17.94 0 0 0 4.28.24 12.96 12.96 0 0 0 4.6-1.1 2.23 2.23 0 0 0 1.13-1.17.82.82 0 0 0 .03-.24v-.02l.04-29.11a23.68 23.68 0 0 0-1.03-6.72 17.9 17.9 0 0 0-1.69-3.74 12.96 12.96 0 0 0-5.5-5.2 13.4 13.4 0 0 0-5.87-1.34Z"/><path fill="#fff" d="M106.5 57.92a4.65 4.65 0 0 1-1.3 2.63c-.82 1-1.7 1.54-2.49 2.01-.88.54-1.67.87-2.25 1.09L53 82.77c-.91.35-2.2.8-3.76 1.22a46.3 46.3 0 0 1-10.79 1.46 52.48 52.48 0 0 1-15.95-1.44 29 29 0 0 1-6.88-2.53 8.05 8.05 0 0 1-3.31-2.82 4.36 4.36 0 0 1-.83-2.55c.06-1.3.81-2.2 1.39-2.88a9.15 9.15 0 0 1 2.77-2.1c.65-.37 1.25-.63 2.45-1.15.94-.4 1.73-.72 2.29-.93l8.04-3.24v10.36c0 .17.03.46.19.76.07.15.2.33.52.6.52.43 1.01.63 1.1.67 1.38.54 2.87.75 2.87.75.8.1 1.92.25 3.44.19 1.71-.08 2.85-.39 3.8-.64-.01 0 .94-.25 1.96-.97.19-.13.47-.36.62-.74.12-.28.1-.53.1-.59-.02-.44-.01-6.7 0-16.29L60.2 53a50.46 50.46 0 0 1 5.8-2.26 41.4 41.4 0 0 1 4.15-1.16 33.43 33.43 0 0 1 4.79-.7v8.46a1.78 1.78 0 0 0 .34 1.02c.1.15.32.42.86.74.4.24.76.39 1.19.53.68.22 1.29.35 1.82.45a18.03 18.03 0 0 0 6.54-.04 13.2 13.2 0 0 0 2.54-.84c.38-.2.56-.37.62-.41a2.57 2.57 0 0 0 .65-.95c.04-.14.04-.25.03-.33l.01-8.66a33.3 33.3 0 0 1 6.18 1.07c1.37.36 2.61.68 4.2 1.34 1.04.43 2.13.9 3.42 1.79 1.2.83 2.33 1.63 2.88 3.08.12.33.35.97.29 1.79Z"/><path fill="#000" d="M35.09 85.82a53.15 53.15 0 0 1-12.65-1.53 29.51 29.51 0 0 1-6.95-2.56 8.36 8.36 0 0 1-3.42-2.92 4.62 4.62 0 0 1-.87-2.72c.06-1.39.86-2.34 1.45-3.04.9-1.06 1.89-1.63 2.85-2.17.66-.38 1.25-.63 2.44-1.14l.03-.02c.76-.32 1.54-.64 2.3-.93l.47-.2c2.53-1 5.05-2.03 7.58-3.05a.28.28 0 0 1 .39.27v10.36c0 .23.05.44.15.63.06.11.16.27.45.51.44.37.87.56 1.03.62 1.33.53 2.79.73 2.8.74a16.09 16.09 0 0 0 7.1-.43c.03-.01.93-.26 1.9-.94.18-.13.4-.32.52-.61.08-.21.08-.4.08-.47v-.01c-.02-.4-.02-5.59 0-16.3 0-.12.08-.22.18-.26l17.18-6.92a49.83 49.83 0 0 1 5.8-2.26c1.07-.34 2.4-.78 4.18-1.17a34.5 34.5 0 0 1 4.84-.7c.08 0 .15.03.21.08s.1.13.1.2l-.01 7.76v.7a1.47 1.47 0 0 0 .29.86c.06.09.23.34.77.66.39.23.73.37 1.14.5.57.19 1.13.33 1.78.44a17.82 17.82 0 0 0 4.28.24c.45-.03 1.2-.08 2.15-.28.73-.15 1.2-.32 1.7-.49.12-.04.4-.14.76-.32.24-.13.44-.26.57-.37a2.31 2.31 0 0 0 .57-.8c.02-.08.02-.17.02-.25v-8.68a.28.28 0 0 1 .31-.28 34.6 34.6 0 0 1 6.23 1.08h.03c1.34.35 2.61.69 4.2 1.35a17 17 0 0 1 3.48 1.81c1.17.82 2.39 1.66 2.98 3.22.11.3.38 1 .3 1.9-.1 1.28-.8 2.13-1.36 2.8-.86 1.04-1.76 1.59-2.56 2.07-.73.44-1.5.81-2.3 1.1L53.1 83.04a41.6 41.6 0 0 1-3.8 1.23c-4.37 1.18-7.8 1.33-10.85 1.47-.86.04-2 .1-3.38.1Zm-6.95-19.6-7.19 2.9-.47.2c-.76.29-1.53.6-2.28.92l-.04.02c-1.16.5-1.75.75-2.38 1.11a8.9 8.9 0 0 0-2.7 2.04c-.56.67-1.27 1.5-1.32 2.7-.04 1.08.48 1.9.79 2.4a7.7 7.7 0 0 0 3.2 2.72c2.6 1.37 5.01 2.06 6.82 2.5a52.02 52.02 0 0 0 15.87 1.44c3-.14 6.42-.3 10.72-1.46 1.27-.34 2.53-.75 3.74-1.2l47.45-19.13c.78-.29 1.52-.64 2.22-1.06.76-.46 1.62-.98 2.42-1.95.54-.65 1.14-1.38 1.23-2.48.07-.78-.16-1.37-.27-1.66-.53-1.4-1.62-2.15-2.77-2.95-1.29-.9-2.4-1.36-3.37-1.76-1.56-.65-2.8-.98-4.13-1.32h-.03a34 34 0 0 0-5.83-1.04v8.34c0 .13 0 .27-.04.4-.06.25-.17.41-.28.57a2.79 2.79 0 0 1-1.14.97 13.55 13.55 0 0 1-4.84 1.16 19.2 19.2 0 0 1-4.42-.25c-.67-.12-1.26-.26-1.86-.46-.38-.12-.8-.28-1.25-.55a3.04 3.04 0 0 1-.94-.82 2.17 2.17 0 0 1-.4-1.18v-8.16a29.64 29.64 0 0 0-4.44.67 51.57 51.57 0 0 0-9.88 3.4L43.3 60.1c-.02 10.57-.02 15.69 0 16.08v.02c0 .1 0 .37-.12.7-.18.43-.5.7-.73.86-1.04.73-2.01 1-2.05 1.01-.95.25-2.12.56-3.85.64-1.59.07-2.78-.1-3.5-.19-.05 0-1.54-.22-2.92-.77a4.6 4.6 0 0 1-1.19-.7 1.92 1.92 0 0 1-.8-1.58v-9.95Z"/><path fill="#FF7E88" d="m80.22 93.6 8.64 3.07c.42.18 1.03.52 1.6 1.1.3.32.61.73 1.1 1.72.44.89.82 1.84 1.19 3.02a38.85 38.85 0 0 1 1.3 6.33c.18 1.41.11 1.61.25 3.21.16 1.98.3 3.56.83 5.42.33 1.13.7 2.01.96 2.56a44123 44123 0 0 1-14.35 5.85c-.17.06-.42.18-.68.36a4.1 4.1 0 0 0-1.24 1.58c-.5.93-.35 1-.82 1.8-.54.9-.92 1.12-1.1 1.21-.13.07-.6.3-1.12.2-.65-.13-1.06-.7-1.4-1.28a14.79 14.79 0 0 1-1.53-3.67c-.43-1.67-.58-3-.72-4.22-.15-1.3-.08-1.26-.25-3.01a43.17 43.17 0 0 0-.53-4.1c-.33-1.74-.71-3.01-.9-3.6-.2-.64-.59-1.8-1.27-3.16a5.34 5.34 0 0 0-1.38-1.95c-.5-.4-1.03-.65-1.4-.82-.62-.28-1.02-.38-1.62-.56-.57-.17-1.38-.44-2.35-.85l-.01-3.4 16.8-6.82Z"/><path fill="#000" d="m77.05 131.34-.32-.03c-.74-.14-1.2-.76-1.59-1.41a15.07 15.07 0 0 1-1.56-3.75c-.45-1.72-.6-3.12-.73-4.25-.07-.67-.1-1-.12-1.37-.02-.37-.05-.8-.13-1.65a43.1 43.1 0 0 0-.53-4.08 30.57 30.57 0 0 0-.89-3.56c-.12-.4-.52-1.65-1.26-3.12a5.04 5.04 0 0 0-1.3-1.86c-.47-.38-.97-.61-1.35-.78-.47-.22-.82-.32-1.26-.45l-.31-.1c-.79-.24-1.59-.53-2.38-.86a.28.28 0 0 1-.18-.26v-3.4c0-.12.06-.23.17-.27l16.8-6.8a.28.28 0 0 1 .2-.01l8.65 3.07.02.01c.64.3 1.2.69 1.68 1.17.34.35.66.79 1.15 1.79.47.94.85 1.91 1.2 3.05a38.3 38.3 0 0 1 1.32 6.38c.1.83.13 1.24.15 1.76.02.38.04.8.1 1.47.15 1.88.29 3.5.83 5.36.25.86.56 1.71.93 2.52.04.07.04.15 0 .23a.28.28 0 0 1-.15.15l-14.35 5.85c-.23.09-.43.2-.62.33-.25.18-.64.52-1.15 1.48-.23.43-.31.67-.4.9-.08.24-.17.48-.43.91-.54.91-.95 1.2-1.21 1.33-.34.17-.67.25-.98.25Zm-13.34-27.72a24.94 24.94 0 0 0 2.46.86c.45.13.82.25 1.34.48.38.17.95.43 1.47.87.53.43.91.97 1.45 2.03.76 1.52 1.16 2.8 1.3 3.21.35 1.14.66 2.36.9 3.63.27 1.47.38 2.58.53 4.12l.14 1.68a28.54 28.54 0 0 0 .83 5.51c.14.56.57 2.03 1.5 3.6.3.5.66 1.04 1.2 1.14.3.06.6 0 .94-.17.12-.06.46-.23.99-1.11.23-.39.3-.59.38-.82.09-.23.18-.5.43-.97.56-1.05 1-1.45 1.33-1.67.22-.16.47-.3.73-.4l14.08-5.73c-.33-.75-.62-1.54-.85-2.33-.55-1.92-.69-3.57-.85-5.47l-.1-1.49c-.02-.5-.04-.91-.13-1.72a38.54 38.54 0 0 0-1.3-6.27 20.1 20.1 0 0 0-1.17-2.98 5.98 5.98 0 0 0-1.06-1.64 4.84 4.84 0 0 0-1.5-1.05l-8.52-3.03-16.53 6.7v3.02Z"/><path fill="#FF444F" d="m82.9 94.55-2.68-.96-16.8 6.81.02-2.08a7.06 7.06 0 0 1 1.9-4.55c.61-.58 1.24-.9 1.64-1.07l2.22-.9 8.1-3.27 5.6-2.28v8.3Z"/><path fill="#000" d="M63.42 100.68a.29.29 0 0 1-.16-.05.29.29 0 0 1-.13-.24l.03-2.07c.03-.84.2-1.64.5-2.4a5.67 5.67 0 0 1 3.22-3.48l.51-.21 1.7-.7 7-2.82 1.1-.45 5.6-2.27a.28.28 0 0 1 .39.26v8.3a.28.28 0 0 1-.37.26l-2.58-.92-.72.3-15.99 6.47a.28.28 0 0 1-.1.02Zm19.2-14.01-5.22 2.12-1.1.44-7 2.83-1.7.7-.51.2a5.1 5.1 0 0 0-2.91 3.16c-.27.7-.42 1.45-.45 2.21l-.03 1.65 15.6-6.32.81-.33a.28.28 0 0 1 .2 0l2.31.81v-7.47Z"/><path fill="#CED0D6" d="M89.99 97.36a5.23 5.23 0 0 0-1.13-.7l-5.96-2.11v-8.3l3.9-1.56a2.2 2.2 0 0 1 2.05.3c.31.24.47.5.61.74a3.59 3.59 0 0 1 .5 1.89l.03 9.74Z"/><path fill="#000" d="M90 97.64a.28.28 0 0 1-.19-.06 4.94 4.94 0 0 0-1.05-.65l-5.95-2.12a.28.28 0 0 1-.19-.26v-8.3c0-.11.06-.22.17-.26l3.9-1.56a2.49 2.49 0 0 1 2.33.34c.36.27.54.57.68.81a3.91 3.91 0 0 1 .54 2.04l.03 9.73a.29.29 0 0 1-.28.29Zm-6.81-3.3 5.77 2.06.02.01c.25.11.5.24.72.4l-.03-9.2c0-.13 0-.33-.04-.58a3.32 3.32 0 0 0-.41-1.16 2.07 2.07 0 0 0-.54-.65 1.91 1.91 0 0 0-1.8-.27l-3.7 1.5v7.9Z"/><path fill="#FF444F" d="m67.19 105.13-3.76 1.6v-2.92c.97.4 1.78.68 2.35.85.53.16.9.26 1.4.47Z"/><path fill="#000" d="M63.43 107a.28.28 0 0 1-.16-.04.29.29 0 0 1-.13-.23v-2.92a.28.28 0 0 1 .4-.26 26.26 26.26 0 0 0 2.64.94c.38.1.71.2 1.12.38a.28.28 0 0 1 0 .52l-3.76 1.6a.27.27 0 0 1-.11.02Zm.28-2.77v2.07l2.7-1.15-.4-.13a23.03 23.03 0 0 1-2.3-.8Z"/><path fill="#CED0D6" d="M70.68 109.08a1299.81 1299.81 0 0 1-4.06 1.67c-.39.11-.74.21-1.19.15a1.89 1.89 0 0 1-.7-.23c-.43-.25-.64-.6-.8-.87a5.43 5.43 0 0 1-.52-2.3l.02-.78 3.76-1.59.2.09c.38.17.92.42 1.41.83.46.37.81.82 1.37 1.94.2.38.36.74.51 1.09Z"/><path fill="#000" d="M65.7 111.2a2.42 2.42 0 0 1-1.12-.29c-.49-.28-.72-.67-.89-.96a5.73 5.73 0 0 1-.56-2.45l.01-.78c0-.1.07-.21.17-.25l3.77-1.6a.28.28 0 0 1 .21 0 6.54 6.54 0 0 1 1.69.96c.53.43.9.97 1.45 2.03a21 21 0 0 1 .53 1.22c0 .11-.07.22-.17.26l-3.3 1.38a5.3 5.3 0 0 1-1.79.48Zm-2-4.29v.6a5.24 5.24 0 0 0 .48 2.15c.15.26.33.56.69.76.25.15.5.19.6.2.39.05.69-.03 1.07-.14.24-.07.48-.16.7-.27h.02l3.05-1.28c-.12-.27-.25-.55-.39-.81a5.07 5.07 0 0 0-1.3-1.86 5.86 5.86 0 0 0-1.43-.82l-3.48 1.48Z"/><path fill="#EBECEF" d="m106.56 107.97-.05-50.18v.13a4.65 4.65 0 0 1-1.3 2.63c-.83 1-1.7 1.54-2.5 2.01-.88.53-1.67.87-2.25 1.09L53 82.77c-.91.35-2.2.8-3.77 1.22a46.3 46.3 0 0 1-10.78 1.46 52.48 52.48 0 0 1-15.95-1.44 29 29 0 0 1-6.88-2.53 8.05 8.05 0 0 1-3.31-2.82 4.54 4.54 0 0 1-.83-2.29l-.06 51.33a4.25 4.25 0 0 0 .77 2.3 6.9 6.9 0 0 0 1.56 1.64c1.23.98 2.5 1.64 3.76 2.19.72.3 1.83.75 3.53 1.25 2.98.87 5.36 1.2 6.98 1.4a58.65 58.65 0 0 0 8.98.5c1-.01 2.73-.05 4.89-.26a44.4 44.4 0 0 0 7.5-1.32 64.94 64.94 0 0 0 8.2-2.97l16.2-6.56a29.2 29.2 0 0 1-.66-4c-.15-1.31-.08-1.27-.25-3.02a43.06 43.06 0 0 0-.54-4.1 31 31 0 0 0-.89-3.6c-.15-.46-.39-1.19-.77-2.07l-3.31 1.38c-.29.14-.54.23-.75.29-.39.11-.74.21-1.19.15a1.89 1.89 0 0 1-.7-.23c-.43-.24-.64-.6-.8-.87a5.43 5.43 0 0 1-.52-2.3l.02-.77v-2.92l-.01-3.4.02-2.09a7.06 7.06 0 0 1 1.9-4.55c.61-.58 1.24-.9 1.64-1.07l2.22-.9 8.1-3.27 5.6-2.28 3.9-1.56a2.2 2.2 0 0 1 2.05.3c.31.24.47.5.61.73a3.59 3.59 0 0 1 .5 1.9l.03 9.74c.16.12.31.26.47.42.3.32.6.72 1.1 1.71.44.89.82 1.84 1.19 3.02.43 1.37.64 2.45.83 3.35.29 1.45.43 2.57.48 2.98.16 1.41.1 1.61.24 3.21.15 1.9.29 3.44.77 5.2l6.27-2.53c.44-.21 1.04-.53 1.72-.98 1.33-.88 2.26-1.5 2.86-2.68a6.55 6.55 0 0 0 .64-3.1Z"/><path fill="#000" d="M35.88 137.27a61.3 61.3 0 0 1-7.9-.5 44.9 44.9 0 0 1-7.02-1.42 28.92 28.92 0 0 1-3.56-1.27 16.99 16.99 0 0 1-3.83-2.22 7.15 7.15 0 0 1-1.62-1.71 4.97 4.97 0 0 1-.82-2.44l.07-51.34c0-.15.12-.28.28-.28.15 0 .28.12.29.27.03.96.5 1.7.78 2.15a7.7 7.7 0 0 0 3.2 2.72c2.6 1.37 5.01 2.06 6.82 2.5a52.01 52.01 0 0 0 15.87 1.44c3.01-.14 6.42-.3 10.72-1.46 1.27-.34 2.53-.75 3.74-1.2l47.45-19.13c.78-.29 1.52-.64 2.22-1.06.76-.46 1.62-.98 2.42-1.95.54-.65 1.14-1.38 1.23-2.48l.01-.12c0-.15.13-.27.28-.27.16 0 .29.13.29.28a279608.7 279608.7 0 0 0 .02 51.03c-.04.4-.17 1.42-.65 2.38-.63 1.24-1.6 1.89-2.95 2.78a15.03 15.03 0 0 1-1.77 1l-6.27 2.54a.28.28 0 0 1-.38-.19c-.5-1.82-.63-3.41-.79-5.25l-.1-1.49c-.02-.5-.04-.9-.14-1.72-.07-.64-.22-1.68-.47-2.95-.18-.87-.4-1.95-.82-3.33-.35-1.1-.72-2.05-1.18-2.97a6 6 0 0 0-1.05-1.64 4.43 4.43 0 0 0-.44-.4.28.28 0 0 1-.1-.22l-.04-9.74c0-.13 0-.34-.04-.58a3.31 3.31 0 0 0-.41-1.16 2.07 2.07 0 0 0-.55-.66 1.9 1.9 0 0 0-1.78-.26l-3.9 1.56-5.59 2.27-1.1.45-7 2.83-1.7.7-.51.2a5.1 5.1 0 0 0-2.91 3.16c-.27.7-.43 1.44-.45 2.21l-.03 2.07v7.1a5.23 5.23 0 0 0 .48 2.16c.15.26.32.56.68.76.26.15.5.18.6.2.4.05.7-.04 1.07-.14.25-.07.49-.16.71-.28h.02l3.31-1.39c.15-.06.3.01.37.15.38.88.63 1.63.78 2.1.36 1.14.66 2.36.9 3.63.28 1.48.39 2.59.54 4.13.08.87.11 1.3.13 1.67.02.37.04.69.12 1.34.12 1.06.26 2.38.66 3.97a.28.28 0 0 1-.17.33l-9.81 3.97-6.4 2.59c-1.05.46-2.13.9-3.2 1.3-1.23.47-2.91 1.1-5.04 1.68-3.36.9-6.08 1.18-7.54 1.32-2.22.23-4.03.25-4.9.27l-1.13.01ZM11.76 78.3l-.06 49.4a3.94 3.94 0 0 0 .73 2.14 6.6 6.6 0 0 0 1.5 1.58c1.05.83 2.2 1.5 3.7 2.15.66.29 1.74.73 3.49 1.24 3.02.88 5.47 1.2 6.93 1.4a59.3 59.3 0 0 0 8.95.5c.86-.02 2.66-.06 4.86-.28 1.44-.14 4.13-.4 7.45-1.3 2.1-.57 3.76-1.2 4.98-1.66 1.06-.4 2.13-.84 3.18-1.3l6.4-2.6 9.6-3.87c-.36-1.52-.5-2.78-.62-3.8-.08-.67-.1-1-.12-1.37-.02-.37-.05-.79-.13-1.65a42.34 42.34 0 0 0-.53-4.08 31.36 31.36 0 0 0-.89-3.56c-.13-.42-.34-1.05-.65-1.8l-3.05 1.28c-.25.12-.51.22-.78.3-.42.12-.8.23-1.3.16a2.18 2.18 0 0 1-.82-.27c-.49-.28-.72-.67-.89-.96-.3-.5-.38-.97-.45-1.33-.08-.37-.11-.75-.1-1.12V100.4l.02-2.08c.03-.83.2-1.64.5-2.4a5.67 5.67 0 0 1 3.22-3.48l.5-.2 1.72-.7 7-2.83 1.09-.44c1.29-.53 3.22-1.3 5.6-2.28l3.9-1.56a2.49 2.49 0 0 1 2.33.34c.36.27.54.57.68.81a3.92 3.92 0 0 1 .54 2.04l.03 9.6a5.19 5.19 0 0 1 1.54 2.15c.47.95.85 1.92 1.2 3.05a39 39 0 0 1 1.32 6.38c.1.83.13 1.24.15 1.76.02.38.04.8.1 1.47.14 1.7.26 3.2.69 4.84l5.96-2.4c.58-.29 1.14-.61 1.68-.97 1.32-.87 2.2-1.45 2.76-2.56a6.27 6.27 0 0 0 .6-2.96l-.03-48.34c-.25.42-.55.78-.81 1.1-.86 1.04-1.77 1.58-2.57 2.07-.73.43-1.5.8-2.3 1.1L53.1 83.03c-1.24.47-2.52.88-3.8 1.23-4.36 1.18-7.8 1.34-10.84 1.48-1.83.08-4.89.21-8.83-.2-2.38-.23-4.8-.66-7.2-1.25a29.51 29.51 0 0 1-6.95-2.56 8.36 8.36 0 0 1-3.73-3.43Z"/><path fill="#FF7E88" d="m108.58 125.31-21.29 8.56c-.5-1.57-.97-2.91-1.36-3.98a8.48 8.48 0 0 0-1.09-2.26c-.48-.67-1.07-1.48-2.09-1.69-.57-.11-1.07 0-1.38.1l.37-.16 14.35-5.85 6.75-2.7c.15-.06.39-.14.68-.15.5 0 .86.21 1.16.4.14.09.6.39 1.16 1.11.25.34.5.72.84 1.4.42.82.68 1.52.91 2.16.28.77.63 1.8 1 3.06Z"/><path fill="#000" d="M87.3 134.15a.28.28 0 0 1-.28-.2 114.2 114.2 0 0 0-1.35-3.97 8.18 8.18 0 0 0-1.06-2.18c-.44-.62-.99-1.39-1.91-1.58-.4-.08-.81-.05-1.24.1a.28.28 0 0 1-.22-.52c.12-.07.25-.13.4-.18l14.34-5.85 6.76-2.7c.24-.1.5-.16.78-.17h.02c.58 0 1 .27 1.29.44.4.26.83.66 1.23 1.18.3.4.56.82.88 1.44.42.85.69 1.55.92 2.19.36.99.69 2.02 1 3.08a.28.28 0 0 1-.17.34l-21.3 8.56a.27.27 0 0 1-.1.02Zm-4.36-8.45c1.06.27 1.68 1.13 2.13 1.77.55.77.82 1.45 1.13 2.32.44 1.21.86 2.45 1.27 3.7l20.77-8.35c-.28-.96-.59-1.9-.91-2.8-.23-.62-.49-1.3-.9-2.12a7.54 7.54 0 0 0-.82-1.35 4.47 4.47 0 0 0-1.08-1.05 1.84 1.84 0 0 0-1-.35c-.2 0-.39.04-.58.12l-6.76 2.7-13.25 5.4Z"/><path fill="#FF444F" d="m85.1 128.02-5.15 2.07-2.13.78.08-.04c.18-.09.57-.32 1.1-1.22.47-.79.32-.86.82-1.8.55-1.03.98-1.39 1.24-1.57.1-.08.21-.14.3-.2h.02c.3-.1.8-.21 1.38-.1 1 .21 1.6 1.02 2.08 1.7l.26.38Z"/><path fill="#000" d="M77.82 131.16a.28.28 0 0 1-.13-.54l.08-.04c.12-.06.47-.23.99-1.11.23-.39.3-.59.38-.82.08-.24.18-.5.43-.97.56-1.06 1-1.45 1.33-1.68l.33-.2.04-.02h.02a2.92 2.92 0 0 1 1.52-.11c1.15.23 1.8 1.14 2.26 1.8l.27.4c.04.07.05.16.03.24a.28.28 0 0 1-.17.17l-5.15 2.07-.57.21-1.56.58a.3.3 0 0 1-.1.02Zm3.66-4.85-.26.16c-.25.17-.64.51-1.15 1.48-.23.43-.31.67-.4.9a4.5 4.5 0 0 1-.66 1.28l.27-.1.57-.21 4.82-1.93a2.09 2.09 0 0 0-.06-.09c-.44-.62-.99-1.39-1.91-1.58-.39-.08-.8-.05-1.22.09Z"/></svg>