<svg xmlns="http://www.w3.org/2000/svg" width="120" height="152" fill="none"><path fill="#CED0D6" d="M60.84 92.32a12.32 12.32 0 0 1-2.88 3.25c-3.9 3.08-8.43 2.7-9.63 2.6-5.85-.47-9.47-4.32-10.7-5.64a16.68 16.68 0 0 1-4.27-7.5c-.32-1.3-1.09-4.54.16-8.36.37-1.14 1.75-5.15 5.75-7.51.8-.47 1.6-.82 2.39-1.07a14.77 14.77 0 0 0-1.7 11.7c1 3.98 3.24 6.44 4.25 7.51 1.24 1.32 4.86 5.17 10.7 5.65.84.06 3.24.26 5.93-.63Z"/><path fill="#000" d="M49.8 98.52c-.5 0-.99-.02-1.5-.06-5.96-.49-9.67-4.44-10.88-5.73a17 17 0 0 1-4.33-7.63 15.13 15.13 0 0 1 .16-8.52 13.53 13.53 0 0 1 5.88-7.67c.77-.45 1.59-.82 2.44-1.09.12-.04.24 0 .31.1.08.1.08.22.02.32-.93 1.5-1.37 2.84-1.52 3.28a14.58 14.58 0 0 0-.15 8.2c1 4 3.32 6.46 4.19 7.39 4.78 5.08 9.1 5.44 10.52 5.56.79.06 3.17.26 5.81-.61.11-.04.24 0 .31.09.08.1.08.22.02.32-.79 1.3-1.78 2.41-2.94 3.32a13.12 13.12 0 0 1-8.34 2.73Zm-8.78-29.9c-.56.22-1.1.48-1.6.78a12.97 12.97 0 0 0-5.63 7.35c-1.25 3.83-.42 7.12-.15 8.2 1 4 3.32 6.46 4.19 7.39 4.78 5.08 9.1 5.44 10.52 5.56 3.73.3 6.9-.56 9.44-2.55.91-.72 1.71-1.57 2.39-2.54-2.44.65-4.55.48-5.28.42-5.96-.49-9.67-4.44-10.9-5.73-.9-.96-3.28-3.5-4.32-7.64a15.13 15.13 0 0 1 1.34-11.24Z"/><path fill="#FF444F" d="M61.96 90.03c-.17.44-.5 1.3-1.12 2.3-2.7.88-5.1.68-5.92.62-5.85-.48-9.47-4.33-10.7-5.65a16.69 16.69 0 0 1-4.27-7.5 14.77 14.77 0 0 1 1.7-11.71c4.82-1.53 9.47.4 10.56.85 7.17 2.98 9.42 9.96 9.8 11.24.5 1.66 1.6 5.54-.05 9.85Z"/><path fill="#000" d="M56.38 93.3c-.67 0-1.19-.05-1.49-.07-5.95-.5-9.66-4.44-10.88-5.73-.9-.96-3.3-3.5-4.33-7.64a15.13 15.13 0 0 1 1.74-11.92.3.3 0 0 1 .15-.12c2.24-.71 5.93-1.14 10.75.86 6.93 2.88 9.38 9.47 9.96 11.42.45 1.51 1.66 5.54-.06 10.03-.15.39-.5 1.29-1.14 2.34a.28.28 0 0 1-.15.12c-1.75.58-3.38.7-4.55.7ZM41.84 68.32a14.58 14.58 0 0 0-1.62 11.4c1 3.98 3.33 6.45 4.2 7.38 1.18 1.26 4.78 5.08 10.52 5.56.78.06 3.11.25 5.71-.58.58-.97.9-1.8 1.04-2.16 1.65-4.31.49-8.2.05-9.67-.57-1.89-2.94-8.27-9.64-11.05-4.6-1.91-8.1-1.55-10.26-.88Z"/><path fill="#fff" stroke="#000" stroke-linecap="round" stroke-linejoin="round" stroke-width=".57" d="M75.93 84.79c-.49-9.48-5.36-16.34-8.38-19.73-1.64-1.84-7.36-8.08-17.02-10.23-2.87-.63-8.34-1.77-14.7.48a24.33 24.33 0 0 0-10.53 7.43c-.63.76-3 3.74-4.48 8.39-2.35 7.41-.77 13.8-.16 16.13 2.46 9.36 8.6 14.75 10.79 16.61 2.48 2.12 7.35 6.17 14.93 7.43 2.58.43 10.35 1.6 17.97-3.03a24.47 24.47 0 0 0 8.79-9.35c3.15-5.9 2.94-11.4 2.8-14.13Zm-13.97 5.24c-.17.44-.5 1.3-1.12 2.3a12.32 12.32 0 0 1-2.88 3.24c-3.9 3.08-8.43 2.7-9.63 2.6-5.85-.47-9.47-4.32-10.7-5.64a16.68 16.68 0 0 1-4.27-7.5c-.32-1.3-1.09-4.54.16-8.36.37-1.14 1.75-5.15 5.75-7.51.8-.47 1.6-.82 2.39-1.07 4.8-1.53 9.46.4 10.55.85 7.17 2.98 9.42 9.96 9.8 11.24.5 1.66 1.6 5.54-.05 9.85Z"/><path fill="#EBECEF" d="M82.46 82.04c-.1 2.74-.43 9.62-5.22 15.6a22.05 22.05 0 0 1-2.82 2.93l-6.55 5.08a24.79 24.79 0 0 0 5.27-6.73c3.15-5.9 2.94-11.4 2.8-14.14-.5-9.47-5.37-16.33-8.4-19.72-1.63-1.84-7.35-8.08-17-10.23-2.88-.64-8.35-1.77-14.7.48a23.7 23.7 0 0 0-5.06 2.52l6.87-5.5c2.76-1.49 8.9-4.28 16.64-3.35 5.28.62 9.05 2.71 11.2 3.94a34.1 34.1 0 0 1 10.74 9.53c1.5 2.08 6.59 9.36 6.23 19.6Z"/><path fill="#000" d="M67.87 105.94a.28.28 0 0 1-.19-.5 24.6 24.6 0 0 0 5.2-6.65c3.19-5.95 2.9-11.59 2.77-14-.49-9.44-5.42-16.3-8.32-19.54A31.73 31.73 0 0 0 50.47 55.1c-2.64-.59-8.13-1.8-14.54.47a23.37 23.37 0 0 0-5 2.48.28.28 0 0 1-.38-.07.28.28 0 0 1 .05-.39l5.23-4.18 1.64-1.31a28.41 28.41 0 0 1 16.85-3.41c5.44.64 9.26 2.8 11.32 3.97a34.52 34.52 0 0 1 10.82 9.61c5.5 7.63 6.45 14.96 6.28 19.77-.04 1.2-.13 3.69-.86 6.64a23.48 23.48 0 0 1-4.42 9.13 22.4 22.4 0 0 1-2.87 2.98l-3.26 2.53-3.29 2.55a.28.28 0 0 1-.17.06ZM43.69 53.69c2.98 0 5.4.53 6.9.87a32.3 32.3 0 0 1 17.17 10.3c2.94 3.31 7.96 10.29 8.46 19.91.12 2.45.42 8.2-2.83 14.29a25.15 25.15 0 0 1-2.72 4.06l.31-.24 3.26-2.53a21.87 21.87 0 0 0 2.78-2.88c4.83-6.04 5.07-13.11 5.15-15.44.17-4.72-.77-11.92-6.17-19.42a33.95 33.95 0 0 0-10.64-9.45 28.55 28.55 0 0 0-11.1-3.9 27.83 27.83 0 0 0-16.45 3.3l-1.62 1.3c-.86.7-1.72 1.38-2.58 2.06A23.58 23.58 0 0 1 43.7 53.7Z"/><path fill="#FF7E88" d="m57.68 139.42-9.5-7.87L38.9 137l.06-28.05c2.1 1.01 4.57 1.88 7.41 2.35 1.8.3 6.17.97 11.25-.26l.05 28.38Z"/><path fill="#000" d="M57.68 139.7a.29.29 0 0 1-.18-.06l-9.35-7.75-9.1 5.35a.28.28 0 0 1-.28 0 .28.28 0 0 1-.14-.24l.06-28.05c0-.07.03-.15.08-.2.09-.08.22-.1.32-.06 2.34 1.13 4.8 1.91 7.34 2.33 1.47.25 5.96 1 11.13-.25a.3.3 0 0 1 .24.05c.07.05.1.13.1.22l.07 28.38a.28.28 0 0 1-.29.28Zm-9.5-8.43c.06 0 .13.02.18.06l9.04 7.48-.05-27.41a28.35 28.35 0 0 1-11.01.18 27.69 27.69 0 0 1-7.09-2.19l-.05 27.11 8.84-5.2c.04-.02.1-.03.14-.03Z"/><path fill="#CED0D6" d="m63.8 134.48-6.12 4.94-.05-28.38a23.53 23.53 0 0 0 6.16-2.44v25.88Z"/><path fill="#000" d="M57.68 139.7c-.04 0-.08 0-.12-.03a.28.28 0 0 1-.16-.25l-.06-28.38c0-.13.1-.24.22-.27 2.15-.52 4.2-1.33 6.09-2.41a.28.28 0 0 1 .42.24v25.88c0 .08-.03.17-.1.22l-6.1 4.94a.28.28 0 0 1-.18.06Zm.23-28.44.06 27.57 5.54-4.49v-25.26a23.93 23.93 0 0 1-5.6 2.18Z"/><path fill="#fff" d="M73.66 43.73a62.74 62.74 0 0 1-19.21-13.9 53.03 53.03 0 0 1-23.32 9.27 52.56 52.56 0 0 1-18.3-.72l.05 27.12c-.02.86-.03 2.07.04 3.51.06 1.52.39 7.67 2.91 15.7a73.53 73.53 0 0 0 10.26 20.52 72.62 72.62 0 0 0 12.86 13.71l.02-9.99a34.1 34.1 0 0 1-7.52-5.07c-2.2-1.87-8.33-7.26-10.79-16.62-.6-2.33-2.2-8.72.16-16.13a25.71 25.71 0 0 1 4.47-8.39c.9-1.08 2.7-3.08 5.49-4.91l6.87-5.5c2.76-1.49 8.9-4.27 16.64-3.35 5.28.63 9.05 2.72 11.2 3.94a34.1 34.1 0 0 1 10.74 9.53c1.5 2.08 6.58 9.36 6.23 19.6-.1 2.73-.43 9.6-5.22 15.6a22.07 22.07 0 0 1-2.82 2.92l-6.54 5.08h-.01a23.68 23.68 0 0 1-4.08 2.95v17.28a49.18 49.18 0 0 0 14.51-8.74 52.78 52.78 0 0 0 11.93-15.6c1.1-2.19 3.1-6.22 4.2-11.62a87.78 87.78 0 0 0 1.38-13.04V49.44a62.73 62.73 0 0 1-22.15-5.7Z"/><path fill="#000" d="M63.8 126.16a.28.28 0 0 1-.28-.28l-.02-17.28c0-.1.06-.2.15-.25a23.1 23.1 0 0 0 4.03-2.9v-.01l.02-.02 2.63-2.03 3.9-3.03a21.91 21.91 0 0 0 2.79-2.89c4.83-6.04 5.07-13.11 5.15-15.43.17-4.73-.77-11.93-6.17-19.42a33.95 33.95 0 0 0-10.64-9.46 28.55 28.55 0 0 0-11.1-3.9 27.84 27.84 0 0 0-16.45 3.31l-1.62 1.3-5.23 4.18-.02.02c-2.03 1.32-3.9 3-5.42 4.85a25.4 25.4 0 0 0-4.43 8.3c-2.38 7.48-.7 13.87-.15 15.97a30.84 30.84 0 0 0 5.44 11.02c2.18 2.83 4.33 4.67 5.25 5.46a33.86 33.86 0 0 0 7.47 5.03.28.28 0 0 1 .16.29l-.02 9.96a.28.28 0 0 1-.47.22 72.92 72.92 0 0 1-12.9-13.77 73.52 73.52 0 0 1-10.3-20.6 62.41 62.41 0 0 1-2.93-15.77 55.49 55.49 0 0 1-.04-3.53l-.04-27.11a.28.28 0 0 1 .34-.28 52.12 52.12 0 0 0 41.39-8.5.28.28 0 0 1 .37.04 62.1 62.1 0 0 0 19.12 13.83 62.15 62.15 0 0 0 22.06 5.69c.15 0 .27.13.27.28v27.44a87.97 87.97 0 0 1-.34 5.5v.02c-.12 1.24-.43 4.55-1.05 7.58a45.5 45.5 0 0 1-4.23 11.68 53.19 53.19 0 0 1-12 15.68 49.33 49.33 0 0 1-14.7 8.82Zm.27-17.4v16.7a48.72 48.72 0 0 0 14.05-8.54 52.6 52.6 0 0 0 11.86-15.51c1-1.98 3.06-6.08 4.18-11.54.62-3 .92-6.28 1.04-7.52v-.02c.17-1.8.29-3.64.34-5.46V49.71a62.72 62.72 0 0 1-22-5.72A62.64 62.64 0 0 1 54.4 30.21a52.65 52.65 0 0 1-41.3 8.52l.05 26.77c-.02 1.17-.01 2.34.04 3.5a61.9 61.9 0 0 0 2.9 15.63 72.95 72.95 0 0 0 10.23 20.44 72.32 72.32 0 0 0 12.34 13.27l.02-9.2c-3.55-1.74-6.06-3.89-7.42-5.05-.94-.8-3.12-2.66-5.34-5.53a31.38 31.38 0 0 1-5.54-11.22c-.56-2.14-2.26-8.65.17-16.3a25.99 25.99 0 0 1 4.52-8.47 24.68 24.68 0 0 1 5.54-4.97l5.21-4.17 1.65-1.31a28.42 28.42 0 0 1 16.85-3.41c5.44.64 9.26 2.8 11.31 3.97a34.52 34.52 0 0 1 10.82 9.6c5.5 7.64 6.45 14.97 6.28 19.78-.08 2.37-.33 9.58-5.28 15.77a22.38 22.38 0 0 1-2.86 2.96v.01l-3.92 3.04-2.61 2.03-.02.01a23.92 23.92 0 0 1-3.98 2.9v-.02Z"/><path fill="#EBECEF" d="m65.55 20.89-11.1 8.94a53.03 53.03 0 0 1-23.32 9.27 52.56 52.56 0 0 1-18.3-.72l11.3-9.1c4.1.92 9.91 1.72 16.78 1a52.44 52.44 0 0 0 24.64-9.4Z"/><path fill="#000" d="M24.02 39.87c-3.76 0-7.52-.4-11.25-1.21a.28.28 0 0 1-.12-.5l11.3-9.1a.29.29 0 0 1 .25-.06 51.06 51.06 0 0 0 16.68 1 52.13 52.13 0 0 0 24.5-9.34c.13-.09.3-.06.4.06.09.12.07.3-.05.39l-11.1 8.94-.02.02a53.4 53.4 0 0 1-23.44 9.31c-2.38.33-4.76.5-7.15.5v-.01Zm-10.54-1.64a52.03 52.03 0 0 0 40.8-8.62l7.1-5.73a52.3 52.3 0 0 1-20.44 6.68c-5.57.59-11.2.26-16.73-.98l-10.73 8.65Z"/><path fill="#EBECEF" d="m107.16 40.46-11.34 8.98a62.72 62.72 0 0 1-41.37-19.6l11.1-8.95a67.57 67.57 0 0 0 41.61 19.57Z"/><path fill="#000" d="M95.82 49.73h-.02a62.7 62.7 0 0 1-22.26-5.74 62.66 62.66 0 0 1-19.3-13.96.28.28 0 0 1 .03-.42l11.1-8.94c.12-.09.28-.08.38.02a67.3 67.3 0 0 0 41.44 19.49c.12 0 .21.09.25.2.03.1-.01.23-.1.3L96 49.66a.28.28 0 0 1-.18.06ZM54.86 29.86a62.09 62.09 0 0 0 18.92 13.62 62.14 62.14 0 0 0 21.95 5.67l10.71-8.48a67.94 67.94 0 0 1-40.91-19.4l-10.67 8.6Z"/><path fill="#EBECEF" d="M107.16 40.46V70a40.57 40.57 0 0 1-1.47 10.58 62.66 62.66 0 0 1-2.33 7.74 51.68 51.68 0 0 1-13.48 19.56l-11.58 9.24a52.76 52.76 0 0 0 11.93-15.6c1.1-2.18 3.1-6.21 4.2-11.6.63-3.04.94-6.4 1.05-7.58.21-2.22.3-4.1.34-5.47V49.44l11.34-8.98Z"/><path fill="#000" d="M78.3 117.42a.28.28 0 0 1-.19-.5 52.62 52.62 0 0 0 11.87-15.51c1-1.98 3.06-6.08 4.18-11.54.61-3 .92-6.29 1.04-7.52v-.02c.17-1.8.28-3.64.34-5.46V49.44c0-.08.04-.16.1-.22L107 40.24c.08-.07.2-.08.3-.04.1.05.16.15.16.26v29.55a41.46 41.46 0 0 1-1.49 10.65 63.47 63.47 0 0 1-2.34 7.77 51.99 51.99 0 0 1-13.54 19.68h-.02l-11.58 9.25a.29.29 0 0 1-.18.06Zm17.8-67.84v27.3a87.96 87.96 0 0 1-.34 5.5v.02c-.12 1.24-.43 4.55-1.05 7.58a45.48 45.48 0 0 1-4.23 11.68 54.48 54.48 0 0 1-8.21 11.95l7.43-5.93a51.59 51.59 0 0 0 15.71-27.16A40.04 40.04 0 0 0 106.88 70V41.05L96.1 49.58Z"/></svg>