<svg width="48" height="48" viewBox="0 0 48 48" fill="none" xmlns="http://www.w3.org/2000/svg">
<path d="M0 9C0 4.02944 4.02944 0 9 0H39C43.9706 0 48 4.02944 48 9V39C48 43.9706 43.9706 48 39 48H9C4.02944 48 0 43.9706 0 39V9Z" fill="#0364B9"/>
<path d="M9 0C4.02944 0 0 4.02944 0 9V9.26143L44.8717 2.17896C43.2955 0.820999 41.2436 0 39 0H9Z" fill="#0A559E"/>
<path d="M45.7979 3.10162L37.5666 47.9999L39 48C43.9706 48 48 43.9706 48 39V9C48 6.74364 47.1697 4.68122 45.7979 3.10162Z" fill="#0A559E"/>
<path d="M11.1173 17.6022C11.3333 17.9982 11.5793 18.4902 11.8553 19.0782C12.1433 19.6542 12.4373 20.2842 12.7373 20.9682C13.0493 21.6402 13.3553 22.3302 13.6553 23.0382C13.9553 23.7462 14.2373 24.4122 14.5013 25.0362C14.7653 24.4122 15.0473 23.7462 15.3473 23.0382C15.6473 22.3302 15.9473 21.6402 16.2473 20.9682C16.5593 20.2842 16.8533 19.6542 17.1293 19.0782C17.4173 18.4902 17.6693 17.9982 17.8853 17.6022H20.4413C20.5613 18.4302 20.6693 19.3602 20.7653 20.3922C20.8733 21.4122 20.9633 22.4802 21.0353 23.5962C21.1193 24.7002 21.1913 25.8102 21.2513 26.9262C21.3233 28.0422 21.3833 29.0922 21.4313 30.0762H18.6953C18.6593 28.8642 18.6113 27.5442 18.5513 26.1162C18.4913 24.6882 18.4013 23.2482 18.2813 21.7962C18.0653 22.3002 17.8253 22.8582 17.5613 23.4702C17.2973 24.0822 17.0333 24.6942 16.7693 25.3062C16.5173 25.9182 16.2713 26.5062 16.0313 27.0702C15.7913 27.6222 15.5873 28.0962 15.4193 28.4922H13.4573C13.2893 28.0962 13.0853 27.6222 12.8453 27.0702C12.6053 26.5062 12.3533 25.9182 12.0893 25.3062C11.8373 24.6942 11.5793 24.0822 11.3153 23.4702C11.0513 22.8582 10.8113 22.3002 10.5953 21.7962C10.4753 23.2482 10.3853 24.6882 10.3253 26.1162C10.2653 27.5442 10.2173 28.8642 10.1813 30.0762H7.44531C7.49331 29.0922 7.54731 28.0422 7.60731 26.9262C7.67931 25.8102 7.75131 24.7002 7.82331 23.5962C7.90731 22.4802 7.99731 21.4122 8.09331 20.3922C8.20131 19.3602 8.31531 18.4302 8.43531 17.6022H11.1173Z" fill="white"/>
<path d="M32.1358 17.6022V19.9962H28.3738V30.0762H25.5658V19.9962H21.8038V17.6022H32.1358Z" fill="white"/>
<path d="M38.0805 26.4042C38.0805 26.0562 38.0025 25.7502 37.8465 25.4862C37.6905 25.2102 37.4205 24.9822 37.0365 24.8022C36.6525 24.6222 36.1365 24.4842 35.4885 24.3882C34.8405 24.2922 34.0245 24.2442 33.0405 24.2442C33.1725 23.1282 33.2805 21.9942 33.3645 20.8422C33.4485 19.6902 33.5145 18.6102 33.5625 17.6022H40.3125V19.8522H35.8125C35.7885 20.2842 35.7585 20.7042 35.7225 21.1122C35.6985 21.5082 35.6685 21.8562 35.6325 22.1562C37.3845 22.2762 38.6745 22.6902 39.5025 23.3982C40.3425 24.0942 40.7625 25.0662 40.7625 26.3142C40.7625 26.8902 40.6605 27.4242 40.4565 27.9162C40.2525 28.4082 39.9465 28.8342 39.5385 29.1942C39.1305 29.5542 38.6145 29.8362 37.9905 30.0402C37.3785 30.2442 36.6585 30.3462 35.8305 30.3462C35.5065 30.3462 35.1645 30.3222 34.8045 30.2742C34.4565 30.2382 34.1145 30.1842 33.7785 30.1122C33.4545 30.0522 33.1605 29.9862 32.8965 29.9142C32.6325 29.8422 32.4285 29.7702 32.2845 29.6982L32.7705 27.4842C33.0705 27.6162 33.4665 27.7482 33.9585 27.8802C34.4505 28.0002 35.0385 28.0602 35.7225 28.0602C36.5505 28.0602 37.1505 27.8982 37.5225 27.5742C37.8945 27.2382 38.0805 26.8482 38.0805 26.4042Z" fill="white"/>
</svg>
