<svg width="36" height="36" viewBox="0 0 36 36" fill="none" xmlns="http://www.w3.org/2000/svg">
<path d="M4.26004 36C1.94004 36 0.0400391 34.1 0.0400391 31.78V21.12C0.0400391 19.68 1.20004 18.5 2.64004 18.5H4.58004C6.02004 18.5 7.20004 19.68 7.20004 21.12V23.98L9.48004 21.7C10.8 20.38 12.56 19.64 14.42 19.64H19.62C21.06 19.64 22.22 20.8 22.22 22.24V23.9C22.22 25.34 21.06 26.5 19.62 26.5H15.62C14.84 26.5 14.06 26.82 13.5 27.38L12.06 28.82H14.92C16.36 28.82 17.54 30 17.54 31.44V33.38C17.54 34.82 16.36 36 14.92 36H4.26004ZM2.64004 20.52C2.30004 20.52 2.02004 20.8 2.02004 21.14V31.8C2.02004 33.02 3.02004 34.02 4.24004 34.02H14.88C15.22 34.02 15.5 33.74 15.5 33.4V31.46C15.5 31.12 15.22 30.84 14.88 30.84H11.28C10.6 30.84 9.98004 30.42 9.72004 29.8C9.46004 29.16 9.60004 28.44 10.08 27.96L12.04 26C12.98 25.06 14.24 24.54 15.58 24.54H19.58C19.92 24.54 20.18 24.28 20.18 23.94V22.28C20.18 21.94 19.92 21.68 19.58 21.68H14.38C13.04 21.68 11.8 22.2 10.84 23.14L8.04004 25.94C7.56004 26.42 6.84004 26.58 6.20004 26.3C5.56004 26.04 5.16004 25.42 5.16004 24.74V21.14C5.16004 20.8 4.88004 20.52 4.54004 20.52H2.60004H2.64004Z" fill="black" fill-opacity="0.72"/>
<path d="M33.3403 17.5H31.4003C29.9603 17.5 28.7803 16.32 28.7803 14.88V12.02L26.5003 14.3C25.1803 15.62 23.4203 16.36 21.5603 16.36H16.3603C14.9203 16.36 13.7603 15.2 13.7603 13.76V12.1C13.7603 10.66 14.9203 9.5 16.3603 9.5H20.3603C21.1403 9.5 21.9203 9.18 22.4803 8.62L23.9203 7.18H21.0603C19.6203 7.18 18.4403 6 18.4403 4.56V2.62C18.4403 1.18 19.6203 0 21.0603 0H31.7003C34.0203 0 35.9202 1.9 35.9202 4.22V14.88C35.9202 16.32 34.7603 17.5 33.3203 17.5H33.3403ZM29.1003 9.6C29.3203 9.6 29.5403 9.64 29.7603 9.72C30.4003 9.98 30.8003 10.6 30.8003 11.28V14.88C30.8003 15.22 31.0803 15.5 31.4203 15.5H33.3603C33.7003 15.5 33.9803 15.22 33.9803 14.88V4.22C33.9803 3 32.9803 2 31.7603 2H21.1203C20.7803 2 20.5003 2.28 20.5003 2.62V4.56C20.5003 4.9 20.7803 5.18 21.1203 5.18H24.7203C25.4003 5.18 26.0203 5.6 26.2803 6.22C26.5403 6.86 26.4003 7.58 25.9203 8.06L23.9603 10.02C23.0203 10.96 21.7603 11.48 20.4203 11.48H16.4203C16.0803 11.48 15.8203 11.74 15.8203 12.08V13.74C15.8203 14.08 16.0803 14.34 16.4203 14.34H21.6203C22.9603 14.34 24.2003 13.82 25.1603 12.88L27.9603 10.08C28.2803 9.76 28.7203 9.58 29.1603 9.58L29.1003 9.6Z" fill="black" fill-opacity="0.72"/>
</svg>
