<svg xmlns="http://www.w3.org/2000/svg" width="120" height="152" fill="none"><path fill="#fff" d="M100.33 89.73a9.63 9.63 0 0 1-2.82-2.79 9.8 9.8 0 0 1-1.83-4.88 8.43 8.43 0 0 1 1.11-5.22 6.9 6.9 0 0 1 6.03-3.47 67.5 67.5 0 0 0-8.07-23 7.38 7.38 0 0 1-4.3 1.36c-2-.03-3.4-.9-4.16-1.4a9.86 9.86 0 0 1-3.6-4.15 9.53 9.53 0 0 1-1.03-4.54 9.49 9.49 0 0 1 1.85-5.28 60.18 60.18 0 0 0-19.74-12c-.03.46-.32 3.98-3.2 5.83a7.14 7.14 0 0 1-7.58-.02 9.57 9.57 0 0 1-3.68-3.74c-1-1.7-1.3-3.32-1.4-4.36a41.72 41.72 0 0 0-19.79 6.07c.51.74 1.26 2.04 1.62 3.81.17.87.5 2.59-.15 4.59-.24.72-1.1 3.37-3.75 4.58-2.38 1.1-4.65.33-5.42.07a8.55 8.55 0 0 1-3.5-2.26A51.04 51.04 0 0 0 8.78 59.4a10.1 10.1 0 0 1 6.35 5.75c.32.77 1.24 3.05.58 5.87-.22.95-.68 2.94-2.54 4.42a7.17 7.17 0 0 1-4.5 1.5A69.54 69.54 0 0 0 17 99.9a7.06 7.06 0 0 1 3.48-1.34c1.98-.2 3.46.54 4.22.93a9.14 9.14 0 0 1 3.56 3.36 10.28 10.28 0 0 1 1.43 3.6l7.7 15.31 10.55 4.11c.01-.66.13-2.17 1.12-3.7a6.94 6.94 0 0 1 3.74-2.88 7.17 7.17 0 0 1 4.65.25 9.05 9.05 0 0 1 4.28 3.38 10.54 10.54 0 0 1 1.96 5.32 41.4 41.4 0 0 0 19.8-6.07 9.92 9.92 0 0 1-1.87-5.44 8.04 8.04 0 0 1 1.4-5.21 7.12 7.12 0 0 1 4.33-2.84c2.28-.44 4.1.5 5.06 1a9.65 9.65 0 0 1 2.41 1.8 53.97 53.97 0 0 0 8.12-20.6c-.66-.18-1.6-.5-2.61-1.15ZM78.2 87.57c-.78 1.99-3.38 8.66-10.42 12.14a20.65 20.65 0 0 1-11.45 1.9c-7.77-.8-12.74-5.52-14.9-7.58A31.23 31.23 0 0 1 32.13 75a25.47 25.47 0 0 1 1.2-11.97c.64-1.73 3.76-10.23 12.4-13.43 6.38-2.36 12.1-.49 14.38.26 11.25 3.68 15.94 14.12 16.8 16.02 1.04 2.33 5.22 11.62 1.29 21.7Z"/><path fill="#000" d="M63.69 128.52a.28.28 0 0 1-.28-.26 10.24 10.24 0 0 0-1.9-5.17c-.5-.67-1.78-2.44-4.16-3.28-.73-.27-2.44-.88-4.47-.26a6.62 6.62 0 0 0-3.59 2.77 6.85 6.85 0 0 0-1.07 3.55.28.28 0 0 1-.39.26l-10.55-4.11a.29.29 0 0 1-.15-.14l-7.7-15.3a9.97 9.97 0 0 0-1.42-3.59c-.38-.6-1.4-2.21-3.44-3.25a7.09 7.09 0 0 0-4.07-.9 6.8 6.8 0 0 0-3.33 1.28c-.07.05-.15.07-.23.05a.28.28 0 0 1-.18-.13 69.95 69.95 0 0 1-8.37-23.05.28.28 0 0 1 .28-.33c.92 0 2.72-.17 4.32-1.45a7.22 7.22 0 0 0 2.45-4.26 9.15 9.15 0 0 0-.57-5.7 9.81 9.81 0 0 0-6.17-5.59.28.28 0 0 1-.2-.31 51.43 51.43 0 0 1 8.2-20.58.28.28 0 0 1 .44-.04c.94 1 2.11 1.76 3.38 2.19.72.24 2.94.99 5.21-.06 1.69-.77 2.9-2.26 3.6-4.41.63-1.97.3-3.64.14-4.44a9.95 9.95 0 0 0-1.57-3.7c-.05-.07-.06-.15-.05-.23a.28.28 0 0 1 .13-.18 41.96 41.96 0 0 1 19.92-6.11c.15-.01.28.1.3.25.15 1.52.6 2.95 1.36 4.24a9.3 9.3 0 0 0 3.58 3.64 6.94 6.94 0 0 0 7.29.02c2.68-1.72 3.02-4.97 3.06-5.6.01-.09.06-.17.13-.22a.28.28 0 0 1 .25-.03 60.47 60.47 0 0 1 19.84 12.06c.1.1.12.27.03.38a9.13 9.13 0 0 0-1.8 5.12 9.2 9.2 0 0 0 1.01 4.4 9.54 9.54 0 0 0 3.5 4.04c.78.5 2.08 1.33 4 1.36 1.95.03 3.43-.8 4.14-1.3.07-.05.15-.07.23-.05.07.02.14.07.18.13a68.02 68.02 0 0 1 8.1 23.09.29.29 0 0 1-.27.33h-.05c-.93 0-1.82.18-2.65.55-1.88.82-2.8 2.3-3.1 2.79a8.09 8.09 0 0 0-1.07 5.05c.2 2.42 1.31 4.05 1.79 4.74A9.1 9.1 0 0 0 103 90.6c.14.04.23.18.2.32a54.28 54.28 0 0 1-8.16 20.7.28.28 0 0 1-.44.04 9.3 9.3 0 0 0-2.33-1.73c-.94-.49-2.7-1.4-4.88-.98a6.8 6.8 0 0 0-4.15 2.72 7.73 7.73 0 0 0-1.35 5.04 9.59 9.59 0 0 0 1.82 5.29c.05.06.07.14.05.22a.28.28 0 0 1-.13.19 41.67 41.67 0 0 1-19.94 6.1h-.01Zm-9-9.8c1.3 0 2.32.36 2.85.55 2.54.91 3.9 2.78 4.42 3.48a10.77 10.77 0 0 1 1.99 5.19 41.12 41.12 0 0 0 19.14-5.86 10.12 10.12 0 0 1-1.75-5.35c-.03-.98-.1-3.26 1.45-5.39a7.38 7.38 0 0 1 4.5-2.95c2.39-.45 4.25.52 5.25 1.04.8.42 1.56.95 2.23 1.59a53.72 53.72 0 0 0 7.85-19.94 9.58 9.58 0 0 1-5.34-3.98c-.46-.67-1.68-2.44-1.88-5.02a8.76 8.76 0 0 1 1.16-5.4 7.08 7.08 0 0 1 5.94-3.6 67.5 67.5 0 0 0-7.84-22.3A7.66 7.66 0 0 1 90.44 52c-2.08-.03-3.52-.95-4.3-1.44-2.37-1.5-3.37-3.59-3.7-4.27-.3-.64-1.13-2.36-1.06-4.67.07-2.31.96-4.09 1.76-5.23a60.05 60.05 0 0 0-19.12-11.65c-.14 1.15-.74 4.03-3.29 5.67a7.4 7.4 0 0 1-3.63 1.1c-2.06.09-3.53-.72-4.24-1.1a9.84 9.84 0 0 1-3.8-3.85 10.99 10.99 0 0 1-1.4-4.2 41.3 41.3 0 0 0-19.13 5.86 10.49 10.49 0 0 1 1.5 3.66c.15.79.52 2.62-.17 4.73-.74 2.31-2.05 3.91-3.9 4.76-2.47 1.13-4.84.33-5.62.07a8.8 8.8 0 0 1-3.36-2.08A50.8 50.8 0 0 0 9.1 59.2a10.32 10.32 0 0 1 6.3 5.83 9.71 9.71 0 0 1 .59 6.05c-.23.98-.71 3.03-2.64 4.57A7.39 7.39 0 0 1 9 77.22a69.44 69.44 0 0 0 8.08 22.27 7.32 7.32 0 0 1 3.36-1.22c2.1-.2 3.7.61 4.38.96a10.51 10.51 0 0 1 5.13 7.13l7.63 15.17 10.08 3.93a7.37 7.37 0 0 1 5.05-6.45c.7-.22 1.36-.3 1.97-.3Zm4.2-16.68c-1.16 0-2.06-.1-2.6-.15-7.86-.81-12.9-5.6-15.05-7.65-7.39-7.03-9.03-15.77-9.39-19.2a25.9 25.9 0 0 1 1.22-12.1c2.45-6.68 6.92-11.51 12.57-13.6 6.46-2.4 12.35-.47 14.56.25a26.52 26.52 0 0 1 12.43 8.77c2.7 3.33 4.08 6.4 4.53 7.4 4.36 9.7 3.11 17.27 1.3 21.92-.4 1.03-1.24 3.18-2.89 5.56a20.17 20.17 0 0 1-7.67 6.73 20.24 20.24 0 0 1-9.01 2.07Zm-6.85-53.3c-3.15 0-5.18.75-6.2 1.13C40.33 51.9 36 56.6 33.6 63.13a25.37 25.37 0 0 0-1.19 11.84c.36 3.37 1.97 11.96 9.22 18.86 2.1 2 7.05 6.7 14.73 7.5 1.54.16 6.23.64 11.3-1.87a19.63 19.63 0 0 0 7.44-6.54 25.49 25.49 0 0 0 2.83-5.45c1.78-4.55 3-11.96-1.28-21.48-.45-.99-1.8-4-4.46-7.28a25.97 25.97 0 0 0-12.16-8.58 25.67 25.67 0 0 0-8-1.4Z"/><path fill="#CED0D6" d="M73.6 95.28a19.42 19.42 0 0 1-5.82 4.43 20.65 20.65 0 0 1-11.45 1.9c-7.77-.8-12.74-5.52-14.9-7.58A31.23 31.23 0 0 1 32.13 75a25.48 25.48 0 0 1 1.2-11.97c.65-1.73 3.76-10.23 12.4-13.43 2.17-.8 4.25-1.11 6.16-1.15a22.8 22.8 0 0 0-5.16 8.21 25.4 25.4 0 0 0-1.3 11.09 30.87 30.87 0 0 0 11.4 21.59A26.22 26.22 0 0 0 69.17 95c1.82.28 3.36.31 4.42.28Z"/><path fill="#000" d="M58.89 102.04c-1.16 0-2.06-.1-2.6-.15-7.86-.81-12.9-5.6-15.05-7.65-7.4-7.03-9.03-15.78-9.39-19.2-.23-2.22-.72-6.83 1.22-12.1 2.46-6.68 6.92-11.51 12.57-13.6a19.01 19.01 0 0 1 6.24-1.17.28.28 0 0 1 .2.48 22.77 22.77 0 0 0-5.1 8.11 25.07 25.07 0 0 0-1.26 10.97 30.62 30.62 0 0 0 11.27 21.39c1.6 1.26 5.83 4.6 12.23 5.6 1.44.23 2.91.32 4.37.27.12 0 .22.07.27.17.04.1.03.22-.05.3a19.7 19.7 0 0 1-14.92 6.58ZM51.2 48.76c-1.86.1-3.66.47-5.37 1.1-5.5 2.04-9.84 6.75-12.23 13.27a25.03 25.03 0 0 0-1.2 11.84c.36 3.37 1.97 11.96 9.22 18.86 2.11 2 7.05 6.7 14.73 7.5 1.54.16 6.23.64 11.3-1.87a19.05 19.05 0 0 0 5.28-3.89c-1.27 0-2.54-.1-3.8-.29-6.55-1.02-10.87-4.43-12.5-5.72a31.2 31.2 0 0 1-11.5-21.8c-.14-2.04-.47-6.3 1.32-11.2a23.81 23.81 0 0 1 4.75-7.8Z"/><path fill="#FF7373" d="m20.74 115.03 15.2-14.57a6.4 6.4 0 0 1 2.39-1.58 6.84 6.84 0 0 1 3.92-.17 8.8 8.8 0 0 1 4.14 2.15 9.91 9.91 0 0 1 2.82 4.55c.24.76.68 2.18.49 4.05a7.56 7.56 0 0 1-2.7 5.37l-20.93 19.89a7.07 7.07 0 0 1-2.97 1.46 7.4 7.4 0 0 1-4.56-.53c-1.89-.8-3-2.09-3.5-2.76L4.58 119.7a7.47 7.47 0 0 1-1.9-3.96c-.2-.94-.45-2.21-.17-3.85.15-.84.47-2.56 1.87-4.01a7.03 7.03 0 0 1 1.95-1.41 6.88 6.88 0 0 1 2.5-.77 6.92 6.92 0 0 1 3.81.8c1.27.62 2.11 1.46 2.93 2.27.46.46.81.87 1.06 1.17l4.1 5.1Z"/><path fill="#000" d="M21.65 136.62c-1.53 0-2.7-.5-3.22-.71a8.78 8.78 0 0 1-3.62-2.85L4.36 119.87a7.87 7.87 0 0 1-1.95-4.09 9.96 9.96 0 0 1-.18-3.95c.14-.78.46-2.62 1.94-4.16a7.32 7.32 0 0 1 2.03-1.47c.4-.2 1.34-.68 2.6-.8 1.9-.19 3.35.52 3.97.83 1.31.64 2.17 1.5 3 2.33.38.38.74.77 1.08 1.19l3.91 4.86 15-14.36a6.58 6.58 0 0 1 6.55-1.82 9.03 9.03 0 0 1 4.28 2.22c1.96 1.77 2.61 3.8 2.89 4.67.23.72.7 2.2.5 4.16-.07.65-.24 2.36-1.41 4.04a7.88 7.88 0 0 1-1.38 1.51l-20.92 19.89-.01.01a7.36 7.36 0 0 1-4.6 1.69ZM9.42 105.94c-.18 0-.37 0-.57.03-1.15.1-1.99.53-2.4.74-.33.17-1.12.57-1.87 1.35-1.36 1.42-1.66 3.14-1.79 3.87a9.45 9.45 0 0 0 .17 3.74 7.22 7.22 0 0 0 1.83 3.83l.01.01 10.46 13.2c.62.84 1.71 1.97 3.4 2.68.63.26 2.3.97 4.39.51a6.79 6.79 0 0 0 2.84-1.4l20.91-19.88.02-.01a7.3 7.3 0 0 0 2.6-5.18 9.3 9.3 0 0 0-.48-3.93c-.27-.83-.88-2.76-2.73-4.43A8.48 8.48 0 0 0 42.19 99a6.04 6.04 0 0 0-6.04 1.67l-15.22 14.57a.28.28 0 0 1-.21.08.28.28 0 0 1-.2-.1l-4.1-5.1c-.33-.4-.68-.78-1.05-1.15-.8-.8-1.62-1.61-2.85-2.22-.52-.25-1.64-.8-3.1-.8Z"/><path fill="#FF444F" d="m27.71 108.35-6.97 6.68-4.1-5.1c-.25-.3-.61-.71-1.07-1.17a10.73 10.73 0 0 0-2.93-2.27 6.42 6.42 0 0 0-5.67-.33l8.37-4.1c.71-.32 1.82-.7 3.17-.64 1.08.05 1.88.35 2.43.56a8.89 8.89 0 0 1 3.39 2.28l3.38 4.09Z"/><path fill="#000" d="M20.74 115.3h-.02a.29.29 0 0 1-.2-.1l-4.1-5.1c-.32-.37-.68-.77-1.05-1.14-.8-.8-1.62-1.61-2.85-2.22-.58-.28-1.94-.94-3.67-.77-.6.06-1.2.2-1.77.45a.28.28 0 0 1-.4-.3.28.28 0 0 1 .16-.21l3.37-1.65 5-2.45a7.06 7.06 0 0 1 3.31-.67c1.12.05 1.95.36 2.5.57a9.28 9.28 0 0 1 3.51 2.37l3.4 4.09c.1.11.08.28-.02.38l-6.98 6.68a.28.28 0 0 1-.2.08Zm-11.32-9.93c1.59 0 2.8.6 3.35.86 1.31.65 2.17 1.5 3 2.33.39.39.75.79 1.08 1.2l3.91 4.85 6.56-6.28-3.22-3.89a8.26 8.26 0 0 0-3.26-2.2 6.5 6.5 0 0 0-5.38.08l-5 2.45-1.24.6h.2Z"/><path fill="#FF444F" d="M57.94 107.7a9.17 9.17 0 0 1-1.12 1.98l-.97 1.01-20.73 19.76a7.43 7.43 0 0 1-2.24 1.34l-7.74 3.58c.4-.24.71-.47.94-.66L47 114.82a7.54 7.54 0 0 0 2.7-5.36 9.58 9.58 0 0 0-.5-4.05 9.9 9.9 0 0 0-2.8-4.55 8.79 8.79 0 0 0-4.15-2.15 7.05 7.05 0 0 0-3.38 0l8.48-4.14a8.85 8.85 0 0 1 6.63.97 8.86 8.86 0 0 1 2.82 2.9c.5.76 1.6 2.46 1.79 4.93a9.6 9.6 0 0 1-.65 4.33Z"/><path fill="#000" d="M25.15 135.65a.28.28 0 0 1-.15-.52c.32-.2.62-.4.89-.63l20.91-19.88.02-.01a7.32 7.32 0 0 0 2.6-5.18c.19-1.84-.26-3.25-.48-3.93a9.58 9.58 0 0 0-2.73-4.43c-.45-.4-1.82-1.63-4.02-2.08-.64-.14-1.85-.38-3.24 0a.28.28 0 0 1-.34-.18.28.28 0 0 1 .14-.36c1.86-.9 3.71-1.8 5.57-2.72l2.9-1.42a9.09 9.09 0 0 1 6.9.98 9.13 9.13 0 0 1 2.92 3c.44.67 1.62 2.47 1.83 5.06a9.46 9.46 0 0 1-1.82 6.5l-.02.03-.98 1-20.74 19.78a7.5 7.5 0 0 1-2.33 1.39l-1.8.83-5.92 2.75a.28.28 0 0 1-.12.03Zm22.04-20.61-20.13 19.13 3.9-1.8 1.8-.84h.02a7.08 7.08 0 0 0 2.15-1.3l20.73-19.74.95-1a8.9 8.9 0 0 0 1.7-6.1c-.2-2.45-1.28-4.09-1.74-4.8a8.64 8.64 0 0 0-2.74-2.81 8.5 8.5 0 0 0-6.38-.95l-2.88 1.41-4.04 1.97c.75 0 1.37.14 1.78.22 2.34.48 3.8 1.79 4.28 2.22a10.13 10.13 0 0 1 2.9 4.67c.22.72.7 2.2.49 4.16a7.9 7.9 0 0 1-2.8 5.55Z"/><path fill="#CED0D6" d="m59.21 120.42-11.28 5.45c.02-.67.14-2.17 1.12-3.7a6.94 6.94 0 0 1 3.75-2.89 7.17 7.17 0 0 1 4.65.26c.67.24 1.25.55 1.76.88Z"/><path fill="#000" d="M47.93 126.15a.28.28 0 0 1-.15-.05.29.29 0 0 1-.13-.24 7.4 7.4 0 0 1 1.16-3.85 7.2 7.2 0 0 1 3.9-3c2.22-.68 4.05-.02 4.83.26.64.23 1.26.54 1.83.92a.28.28 0 0 1-.04.49l-11.28 5.44a.28.28 0 0 1-.12.03Zm6.76-6.87c-.56 0-1.17.08-1.81.27a6.8 6.8 0 0 0-4.64 5.85l10.38-5c-.4-.24-.83-.44-1.27-.6-.5-.17-1.46-.52-2.67-.52Z"/><path fill="#EBECEF" d="M116.2 84.53a49 49 0 0 1-8.1 20.63l-13.29 6.3a53.84 53.84 0 0 0 8.13-20.59l13.26-6.34Z"/><path fill="#000" d="M94.82 111.75a.28.28 0 0 1-.24-.44 53.68 53.68 0 0 0 8.08-20.48c.01-.1.07-.17.16-.21l13.26-6.35c.1-.04.2-.03.29.03.08.06.12.17.1.27a49.36 49.36 0 0 1-8.14 20.75.29.29 0 0 1-.11.1l-13.28 6.3a.3.3 0 0 1-.13.03Zm8.37-20.68a54.4 54.4 0 0 1-7.6 19.72l12.32-5.85a48.71 48.71 0 0 0 7.93-19.92l-12.65 6.05Z"/><path fill="#EBECEF" d="m116.17 67.05-13.35 6.31a67.55 67.55 0 0 0-8.07-22.99L108 44.03a60.49 60.49 0 0 1 8.18 23.02Z"/><path fill="#000" d="M102.82 73.65a.28.28 0 0 1-.28-.24 67.54 67.54 0 0 0-8.03-22.9.28.28 0 0 1 .12-.4l.53-.24 12.7-6.1a.28.28 0 0 1 .37.12A60.85 60.85 0 0 1 116.45 67a.28.28 0 0 1-.16.3l-13.35 6.3a.28.28 0 0 1-.12.04ZM95.15 50.5a68.01 68.01 0 0 1 7.9 22.45l12.8-6.06a60.59 60.59 0 0 0-7.97-22.49L95.4 50.38l-.26.12Z"/><path fill="#EBECEF" d="m96.82 30.03-13.3 6.33a60.18 60.18 0 0 0-19.74-12l13.3-6.45a55.39 55.39 0 0 1 19.75 12.12Z"/><path fill="#000" d="M83.51 36.65a.29.29 0 0 1-.19-.08 60.05 60.05 0 0 0-19.64-11.95.28.28 0 0 1-.03-.52l13.3-6.44a.3.3 0 0 1 .22-.01 55.8 55.8 0 0 1 19.85 12.17.28.28 0 0 1-.07.46l-1.73.82-11.58 5.52a.28.28 0 0 1-.13.02ZM64.5 24.33a60.76 60.76 0 0 1 19.08 11.7l11.4-5.44 1.36-.64A55.26 55.26 0 0 0 77.1 18.22l-12.6 6.1Z"/><path fill="#EBECEF" d="M61.2 15.66 47.9 22.07a41.6 41.6 0 0 0-15.98 4.01l15.58-7.58a43.24 43.24 0 0 1 13.68-2.84Z"/><path fill="#000" d="M31.93 26.36a.28.28 0 0 1-.12-.53l3.56-1.74 12.02-5.85h.02a43.98 43.98 0 0 1 13.77-2.86.28.28 0 0 1 .14.54l-13.28 6.4a41.42 41.42 0 0 0-16.1 4.04h-.01Zm15.7-7.6-9.69 4.71.12-.03a42.06 42.06 0 0 1 9.78-1.65l11.93-5.76a43.37 43.37 0 0 0-12.15 2.73Z"/><path fill="#CED0D6" d="M29.6 36.54c-.24.72-1.1 3.36-3.75 4.58a7.27 7.27 0 0 1-5.43.07 8.5 8.5 0 0 1-3.49-2.26l12.94-6.24c.14.95.22 2.31-.28 3.85Z"/><path fill="#000" d="M23.19 41.97c-1.32 0-2.38-.36-2.86-.51a8.81 8.81 0 0 1-3.6-2.34.28.28 0 0 1 .08-.45l12.94-6.24c.1-.05.24-.03.32.06.05.04.07.1.08.16a8.6 8.6 0 0 1-.29 3.97c-.74 2.31-2.05 3.92-3.9 4.76a6.6 6.6 0 0 1-2.77.6Zm-5.78-2.96c.68.65 1.7 1.44 3.1 1.9.73.25 2.94 1 5.22-.05 1.69-.77 2.9-2.26 3.6-4.41a7.9 7.9 0 0 0 .31-3.34l-12.23 5.9Z"/><path fill="#CED0D6" d="m96.84 115.77-13.35 6.4a9.92 9.92 0 0 1-1.87-5.45c-.03-1-.1-3.16 1.4-5.21a7.13 7.13 0 0 1 4.33-2.84c2.28-.43 4.1.5 5.05 1.01a9.56 9.56 0 0 1 2.41 1.79l.4-.2a10.46 10.46 0 0 0 1.63 4.5Z"/><path fill="#000" d="M83.5 122.45a.29.29 0 0 1-.24-.12 10.14 10.14 0 0 1-1.92-5.6c-.03-.98-.1-3.26 1.45-5.39a7.3 7.3 0 0 1 4.5-2.95 7.81 7.81 0 0 1 5.24 1.04 9.76 9.76 0 0 1 2.34 1.7h.02l.2-.1a.28.28 0 0 1 .4.22 10.16 10.16 0 0 0 1.58 4.37c.05.07.06.15.04.23a.29.29 0 0 1-.15.18l-6.67 3.2-6.67 3.2a.3.3 0 0 1-.13.02Zm5.02-13.6c-.36 0-.73.02-1.12.1a6.83 6.83 0 0 0-4.15 2.73 7.72 7.72 0 0 0-1.35 5.03 9.55 9.55 0 0 0 1.69 5.1l6.45-3.1 6.39-3.06a10.67 10.67 0 0 1-1.45-3.95l-.04.02a.28.28 0 0 1-.33-.06 9.25 9.25 0 0 0-2.34-1.73c-.77-.4-2.09-1.1-3.75-1.1v.01Z"/><path fill="#CED0D6" d="m116.2 84.53-13.26 6.34a9.43 9.43 0 0 1-5.43-3.93 9.8 9.8 0 0 1-1.83-4.88 8.42 8.42 0 0 1 1.11-5.22 6.87 6.87 0 0 1 6.03-3.47l7.9-3.74a8.24 8.24 0 0 0-1.61 6.8c.08.52.5 2.78 2.34 4.92a10.68 10.68 0 0 0 4.75 3.18Z"/><path fill="#000" d="m102.94 91.16-.08-.01a9.7 9.7 0 0 1-2.69-1.19c-1.65-1.05-2.52-2.32-2.89-2.86-.46-.67-1.68-2.44-1.88-5.01-.07-.77-.25-3.12 1.16-5.4a7.13 7.13 0 0 1 6.2-3.6l7.85-3.72a.28.28 0 0 1 .34.43 7.94 7.94 0 0 0-1.56 6.58 10.18 10.18 0 0 0 6.9 7.88.28.28 0 0 1 .03.53c-4.42 2.1-8.84 4.22-13.26 6.34a.28.28 0 0 1-.12.03Zm-.15-17.51c-.94 0-1.84.18-2.67.55-1.87.82-2.79 2.3-3.09 2.79-1.3 2.12-1.14 4.25-1.07 5.05.2 2.42 1.31 4.05 1.78 4.74a9.31 9.31 0 0 0 5.17 3.8l12.56-6.02a10.88 10.88 0 0 1-6.64-8.1 8.51 8.51 0 0 1 1.06-6.13l-6.95 3.29a.3.3 0 0 1-.12.03h-.03Z"/><path fill="#CED0D6" d="m105.79 45.09-11.04 5.29a7.37 7.37 0 0 1-4.3 1.35c-2-.03-3.39-.9-4.16-1.4a9.87 9.87 0 0 1-3.6-4.15 9.53 9.53 0 0 1-1.03-4.54 9.47 9.47 0 0 1 1.86-5.28l13.3-6.33c-.5.7-1.55 2.3-1.75 4.59-.17 2.1.46 3.67.8 4.5.38.9 1.96 4.68 5.83 5.83 1.66.5 3.15.33 4.09.14Z"/><path fill="#000" d="M90.55 52.02h-.1c-2.09-.04-3.53-.95-4.3-1.44-2.38-1.51-3.38-3.6-3.71-4.28-.34-.7-1.13-2.36-1.06-4.67a9.67 9.67 0 0 1 1.9-5.44.28.28 0 0 1 .11-.08l11.59-5.52 1.72-.82a.28.28 0 0 1 .35.42 8.72 8.72 0 0 0-1.7 4.45c-.17 2.08.47 3.63.79 4.38 1.56 3.75 3.93 5.15 5.64 5.66a8 8 0 0 0 3.95.13c.14-.03.28.05.32.19a.28.28 0 0 1-.14.34l-6.81 3.27-4.21 2.01a7.7 7.7 0 0 1-4.34 1.4ZM83.7 36.59a9.1 9.1 0 0 0-1.76 5.06 9.21 9.21 0 0 0 1 4.4 9.55 9.55 0 0 0 3.5 4.05c.78.5 2.1 1.32 4 1.35a7.12 7.12 0 0 0 4.19-1.33l4.22-2.03 5.3-2.53c-.87.02-1.72-.1-2.53-.34-1.83-.54-4.35-2.02-6-5.99-.33-.78-1.02-2.42-.83-4.64a9.2 9.2 0 0 1 1.24-3.87l-.81.38L83.7 36.6Z"/><path fill="#CED0D6" d="m65.76 23.4-1.99.96c-.03.45-.32 3.98-3.2 5.82a7.14 7.14 0 0 1-7.57-.01 9.56 9.56 0 0 1-3.7-3.75c-.98-1.7-1.28-3.31-1.4-4.35l13.3-6.4a10.77 10.77 0 0 0 4.56 7.72Z"/><path fill="#000" d="M56.82 31.54c-1.92 0-3.34-.78-3.96-1.12a9.85 9.85 0 0 1-3.8-3.85 11.06 11.06 0 0 1-1.43-4.47.28.28 0 0 1 .16-.28l13.28-6.41a.29.29 0 0 1 .26 0c.08.05.13.13.14.23a10.38 10.38 0 0 0 4.45 7.53.28.28 0 0 1-.04.48l-1.84.9c-.09.95-.6 4.13-3.31 5.87a7.4 7.4 0 0 1-3.63 1.11h-.28Zm-8.6-9.3c.17 1.45.62 2.8 1.33 4.04a9.32 9.32 0 0 0 3.58 3.64 6.92 6.92 0 0 0 7.29.02c2.68-1.72 3.03-4.97 3.07-5.6.01-.1.07-.19.16-.24l1.56-.75a10.94 10.94 0 0 1-4.25-7.26L48.2 22.24Z"/></svg>