<svg xmlns="http://www.w3.org/2000/svg" width="120" height="152" fill="none"><path fill="#fff" d="m62.8 67.99 36.6 12.75a13.8 13.8 0 0 1 5.94 5.26 12.52 12.52 0 0 1 1.75 6.27l.11 28.67a6.01 6.01 0 0 1-3.49 5.36 5.74 5.74 0 0 1-4.06.06l-7.43-2.62-7.48 6.55-.04-9.15-23.05-8.1a13.18 13.18 0 0 1-4.17-3.64 13.45 13.45 0 0 1-2.58-7.58l.05-28.34a5.74 5.74 0 0 1 5.43-5.96 5.5 5.5 0 0 1 2.43.47Z"/><path fill="#000" d="M84.74 130.57c-.04 0-.08 0-.12-.02a.28.28 0 0 1-.17-.26l-.03-8.96-22.87-8.02a13.35 13.35 0 0 1-6.94-11.49l.06-28.34a6.2 6.2 0 0 1 1.66-4.37 6 6 0 0 1 4.04-1.88c.86-.03 1.74.14 2.54.5L99.5 80.46l.03.01c2.68 1.3 4.72 3.1 6.06 5.38a12.89 12.89 0 0 1 1.8 6.41l.1 28.66a6.32 6.32 0 0 1-3.66 5.63 6 6 0 0 1-4.27.06l-7.27-2.56-7.36 6.44a.28.28 0 0 1-.18.07ZM61.76 112.8l23.03 8.08c.12.04.2.14.2.26l.03 8.54 7.01-6.14a.28.28 0 0 1 .28-.06l7.43 2.62c.76.26 2.27.61 3.86-.06a5.74 5.74 0 0 0 3.32-5.1l-.1-28.66c-.01-1.2-.24-3.61-1.73-6.13A13.28 13.28 0 0 0 99.3 81L62.71 68.25h-.02a5.25 5.25 0 0 0-2.3-.45 5.43 5.43 0 0 0-3.65 1.7 5.72 5.72 0 0 0-1.5 3.97l-.06 28.35a12.79 12.79 0 0 0 6.58 10.97Z"/><path fill="#EBECEE" d="M114.5 120.46a6.2 6.2 0 0 1-1.67 1.66l-8.86 4.05a6.05 6.05 0 0 0 3.23-5.24l-.1-28.66c-.01-1.35-.27-3.75-1.77-6.27a13.8 13.8 0 0 0-5.93-5.26L62.8 67.99a5.32 5.32 0 0 0-4.48.03l8.04-3.8a5.93 5.93 0 0 1 3.76-.38l35.32 12.23 1.16.38a20.37 20.37 0 0 1 2.55 1.02 13.4 13.4 0 0 1 6.4 10.84v28.38c.03.64-.02 2.23-1.05 3.77Z"/><path fill="#000" d="M103.97 126.46c-.1 0-.2-.06-.25-.16-.07-.14-.01-.31.13-.38a5.76 5.76 0 0 0 3.07-5l-.1-28.65c-.01-1.2-.24-3.61-1.73-6.12A13.26 13.26 0 0 0 99.3 81l-14.21-4.95-22.37-7.8h-.02a5.05 5.05 0 0 0-4.24.03.28.28 0 0 1-.24-.52l8.03-3.8a6.22 6.22 0 0 1 3.95-.4l.03.01 35.32 12.23 1.16.38a20.92 20.92 0 0 1 2.58 1.04l.02.01a13.73 13.73 0 0 1 6.53 11.07l.01 28.4a6.5 6.5 0 0 1-2.85 5.67l-.04.01-4.43 2.03-4.43 2.02a.3.3 0 0 1-.12.03ZM62.91 67.72l22.35 7.79 14.23 4.96.03.01c2.68 1.3 4.72 3.1 6.06 5.38a12.88 12.88 0 0 1 1.8 6.4l.1 28.67a6.73 6.73 0 0 1-1.5 4.01 2360.26 2360.26 0 0 1 6.71-3.07 5.88 5.88 0 0 0 2.59-5.17l-.01-28.38a13.16 13.16 0 0 0-6.26-10.6l-.68-.33c-.18-.08-.57-.26-1.82-.68l-1.15-.38-35.32-12.22a5.64 5.64 0 0 0-3.56.36l-5.83 2.76c.77 0 1.54.18 2.26.5Z"/><path fill="#CED0D6" d="m95.14 124.77-1.9 1.7-8.5 3.82 7.48-6.55 2.92 1.03Z"/><path fill="#000" d="M84.74 130.57a.28.28 0 0 1-.23-.13.28.28 0 0 1 .05-.36l7.48-6.55a.28.28 0 0 1 .28-.06l1.49.53 1.43.5c.1.04.16.12.18.22.02.1-.01.2-.08.26a1254 1254 0 0 1-1.99 1.75l-8.49 3.82a.28.28 0 0 1-.12.02Zm7.55-6.5-5.94 5.19 6.73-3.02 1.52-1.36-.98-.35-1.33-.47Z"/><path fill="#fff" d="M77.97 45.8c-.1.72-.22 1.31-.32 1.74L73.49 65l-3.36-1.16a5.94 5.94 0 0 0-3.76.38l-8.03 3.8a5.99 5.99 0 0 0-1.8 1.28 5.96 5.96 0 0 0-1.58 4.18l-.01 4.87-3.52-1.25-10.65 6 2.04-9.1c-9.13-3.3-18.26-6.58-27.39-9.86a10.9 10.9 0 0 1-5.17-6.08c-.84-2.48-.55-4.6-.38-5.8.12-.8.29-1.45.43-1.93l6.1-25.85a8.6 8.6 0 0 1 3.27-5.04 7.95 7.95 0 0 1 2.98-1.26 9 9 0 0 1 4.78.23l43.38 15.54a10.33 10.33 0 0 1 4.63 3.11 10.7 10.7 0 0 1 1.84 3.1 10.34 10.34 0 0 1 .68 5.65Z"/><path fill="#000" d="M40.78 83.38a.28.28 0 0 1-.28-.35l2-8.86a154975.32 154975.32 0 0 0-27.2-9.78A11.13 11.13 0 0 1 10 58.14c-.88-2.59-.55-4.84-.38-5.92.1-.66.24-1.32.43-1.96l.93-3.94 5.16-21.9a8.82 8.82 0 0 1 3.39-5.21c1.27-.9 2.49-1.17 3.07-1.3a9.35 9.35 0 0 1 4.94.23L70.9 33.68a10.65 10.65 0 0 1 4.76 3.2c1.14 1.34 1.66 2.62 1.88 3.17.21.52.6 1.49.76 2.85.15 1.25.02 2.27-.06 2.94-.07.6-.18 1.19-.33 1.76l-4.15 17.46a.28.28 0 0 1-.37.2l-3.35-1.15a5.64 5.64 0 0 0-3.57.36l-8.01 3.8c-.87.4-1.45.94-1.72 1.22a5.7 5.7 0 0 0-1.5 3.98v.42l-.02 4.46a.28.28 0 0 1-.37.27l-3.4-1.22-10.54 5.94a.29.29 0 0 1-.14.04Zm-25.23-19.5 27.37 9.84c.13.05.21.2.18.33l-1.9 8.49 10.09-5.7a.28.28 0 0 1 .23-.01l3.14 1.12.01-4.06v-.4a6.2 6.2 0 0 1 1.66-4.38c.3-.32.94-.91 1.88-1.35l8.03-3.8a6.21 6.21 0 0 1 3.95-.4l.03.01 3.07 1.06 4.08-17.16c.14-.56.24-1.13.31-1.7.09-.68.2-1.62.06-2.8-.14-1.29-.52-2.21-.72-2.7a10.13 10.13 0 0 0-6.3-6.04c-14.46-5.2-28.92-10.37-43.38-15.55a8.62 8.62 0 0 0-4.62-.22c-.6.13-1.7.38-2.88 1.21a8.07 8.07 0 0 0-3.16 4.87l-5.17 21.91-.93 3.95v.01a13.7 13.7 0 0 0-.42 1.9c-.15 1.03-.47 3.2.36 5.65a10.63 10.63 0 0 0 5.03 5.92Z"/><path fill="#CED0D6" d="m42.82 74-2.05 9.1-5.39 2.47 2.12-9.24L42.82 74Z"/><path fill="#000" d="M35.38 85.85a.28.28 0 0 1-.28-.35l2.12-9.23a.28.28 0 0 1 .17-.2l5.31-2.34c.1-.04.21-.02.3.05.08.06.12.17.1.28l-2.05 9.1a.28.28 0 0 1-.16.2l-.13.05-5.26 2.42a.29.29 0 0 1-.12.02Zm2.37-9.32-1.96 8.54 4.74-2.17 1.89-8.42-4.67 2.05Z"/><path fill="#CED0D6" d="m42.82 73.99-5.32 2.34c-14.07-4.84-24.4-8.52-26.68-9.51-.53-.23-1.25-.58-2.05-1.17a11.05 11.05 0 0 1-4.26-7.3c-.18-1.4-.02-2.57.1-3.47.1-.82.26-1.5.39-2l6.21-26.26a8.89 8.89 0 0 1 1.44-3.1 8 8 0 0 1 2.87-2.37l5.36-2.4a7.44 7.44 0 0 0-3.29 2.9 8.6 8.6 0 0 0-1.19 2.83l-6.1 25.85c-.13.47-.3 1.13-.42 1.93-.18 1.2-.47 3.32.37 5.8a10.9 10.9 0 0 0 5.18 6.08l27.39 9.85Z"/><path fill="#000" d="M37.5 76.61a.3.3 0 0 1-.09-.01c-13.86-4.77-24.35-8.5-26.7-9.52-.77-.34-1.46-.73-2.1-1.2a11.18 11.18 0 0 1-4.37-7.48c-.2-1.43-.03-2.62.08-3.5l.01-.05c.1-.7.22-1.38.4-2.03l6.2-26.26a9.1 9.1 0 0 1 1.5-3.2 8.28 8.28 0 0 1 2.97-2.46l4.1-1.84 1.26-.57c.14-.06.31 0 .38.14.06.15 0 .31-.14.38a7.1 7.1 0 0 0-3.17 2.79 8.27 8.27 0 0 0-1.15 2.74L11.5 46.45l-.93 3.95v.01a13.7 13.7 0 0 0-.42 1.9c-.15 1.03-.47 3.2.36 5.65a10.63 10.63 0 0 0 5.03 5.92l27.37 9.84c.1.04.18.15.18.26 0 .12-.06.22-.17.27l-5.31 2.34a.3.3 0 0 1-.12.02ZM18.4 20.17l-2.76 1.24a7.76 7.76 0 0 0-4.15 5.28L5.27 52.95c-.17.64-.3 1.3-.38 1.97v.06c-.13.89-.28 2-.1 3.34a10.8 10.8 0 0 0 4.15 7.1c.6.45 1.26.82 2 1.14 2.33 1 12.75 4.72 26.55 9.47l4.57-2.01-26.72-9.62a11.13 11.13 0 0 1-5.35-6.26c-.88-2.59-.55-4.84-.39-5.92.1-.66.25-1.32.43-1.96l.93-3.94 5.17-21.9a8.82 8.82 0 0 1 2.28-4.25Z"/><path fill="#CED0D6" d="m51.42 77.1 3.52 1.26v4.26l-8.04-2.97 4.52-2.55Z"/><path fill="#000" d="m54.94 82.9-.1-.01-8.04-2.98a.28.28 0 0 1-.04-.51l4.53-2.55a.28.28 0 0 1 .23-.02l3.52 1.26c.11.04.19.15.19.27l-.01 4.26a.28.28 0 0 1-.28.29Zm-7.37-3.3 7.08 2.61v-3.66l-3.2-1.14-3.88 2.18Z"/><path fill="#FF535E" d="m12.23 87.28 17.3-1.67.04 9.74-17.3 1.62-.04-9.69Z"/><path fill="#000" d="M12.26 97.26a.29.29 0 0 1-.28-.28l-.03-9.7c0-.14.11-.26.26-.28l17.3-1.67c.08-.01.16.01.22.07.06.05.1.13.1.2l.02 9.75c0 .15-.1.27-.25.28l-17.3 1.63h-.04Zm.26-9.72.03 9.13 16.73-1.57-.02-9.18-16.74 1.62Z"/><path fill="#FF7E88" d="M12.23 87.29c-.95-1.6-1.91-3.18-2.87-4.77l17.25-1.68 2.93 4.77-17.3 1.68Z"/><path fill="#000" d="M12.24 87.57c-.1 0-.2-.05-.25-.14l-2.87-4.76a.28.28 0 0 1 .21-.43l17.26-1.68c.1 0 .2.04.26.13l2.93 4.77c.05.08.06.19.02.27a.28.28 0 0 1-.23.16l-17.3 1.68h-.03Zm-2.4-4.81 2.55 4.23 16.67-1.62-2.6-4.23-16.63 1.62Z"/><path fill="#FF444F" d="m12.26 96.98-2.96-4.8.06-9.66 2.87 4.77.03 9.69Z"/><path fill="#000" d="M12.26 97.26a.28.28 0 0 1-.24-.13l-2.95-4.8a.28.28 0 0 1-.05-.15l.06-9.66a.28.28 0 0 1 .52-.14l2.88 4.76c.02.04.04.1.04.15l.03 9.69a.28.28 0 0 1-.29.28ZM9.6 92.11l2.39 3.87-.03-8.61-2.31-3.84-.05 8.58Z"/><path fill="#FF535E" d="M12.27 108.3 37 105.93l.12 9.67-24.84 2.4-.02-9.68Z"/><path fill="#000" d="M12.3 118.27a.28.28 0 0 1-.2-.08.28.28 0 0 1-.09-.2l-.03-9.68c0-.15.11-.27.26-.29l24.75-2.38c.08 0 .15.02.21.07s.1.13.1.2l.12 9.67c0 .15-.11.27-.26.29l-24.84 2.4h-.03Zm.25-9.7.03 9.1 24.27-2.34-.11-9.1-24.19 2.33Z"/><path fill="#FF7E88" d="m12.25 108.3-2.9-4.76 24.74-2.41 2.91 4.8-24.75 2.38Z"/><path fill="#000" d="M12.26 108.59a.28.28 0 0 1-.25-.14l-2.89-4.76a.28.28 0 0 1 .21-.43l24.73-2.41c.11-.02.21.04.27.13l1.1 1.82 1.81 2.97a.28.28 0 0 1-.21.43l-24.75 2.39h-.03Zm-2.42-4.81L12.4 108l24.12-2.33-1.57-2.58-1.02-1.67-24.1 2.35Z"/><path fill="#FF444F" d="m12.29 117.98-3-4.76.07-9.68 2.9 4.77.03 9.67Z"/><path fill="#000" d="M12.28 118.26a.27.27 0 0 1-.23-.13l-3-4.76a.29.29 0 0 1-.03-.15l.06-9.68c0-.13.09-.24.21-.27.12-.04.25.02.32.12l2.9 4.77c.02.04.03.1.03.15l.03 9.66a.3.3 0 0 1-.2.28.3.3 0 0 1-.09 0v.01Zm-2.7-5.12L12 117l-.02-8.62-2.34-3.84-.06 8.6Z"/><path fill="#FF535E" d="m12.25 128.94 35.82-3.44.06 9.7-35.88 3.48v-9.74Z"/><path fill="#000" d="M12.25 138.96a.28.28 0 0 1-.28-.28v-9.74c0-.14.1-.27.25-.28l35.83-3.44c.08-.01.16.01.21.07.06.05.1.13.1.2l.05 9.72c0 .14-.11.27-.26.28l-35.87 3.47h-.03Zm.28-9.76v9.17l35.31-3.42-.05-9.14-35.25 3.39Z"/><path fill="#FF444F" d="m12.25 138.68-2.96-4.8.05-9.72 2.92 4.78v9.74Z"/><path fill="#000" d="M12.26 138.96a.28.28 0 0 1-.25-.13l-2.96-4.8a.28.28 0 0 1-.04-.15l.05-9.72c0-.12.09-.23.2-.27.13-.03.26.02.33.13l2.9 4.77c.03.05.05.1.05.15v9.74a.28.28 0 0 1-.28.28Zm-2.69-5.16 2.4 3.89v-8.67l-2.35-3.86-.05 8.64Z"/><path fill="#FF7E88" d="m9.34 124.16 35.8-3.41 2.94 4.75-35.83 3.44-2.9-4.78Z"/><path fill="#000" d="M12.26 129.22a.28.28 0 0 1-.25-.13l-2.9-4.78a.28.28 0 0 1 .2-.43l35.81-3.41c.11-.01.21.04.27.13l2.93 4.75c.05.08.06.18.01.27a.28.28 0 0 1-.22.16l-35.83 3.44h-.02Zm-2.44-4.82 2.59 4.24 35.19-3.38-2.6-4.21-35.18 3.35Z"/></svg>